<?xml version="1.0" encoding="utf-8"?>
<!-- Generator: Adobe Illustrator 28.1.0, SVG Export Plug-In . SVG Version: 6.00 Build 0)  -->
<svg version="1.1" id="Layer_1" xmlns="http://www.w3.org/2000/svg" xmlns:xlink="http://www.w3.org/1999/xlink" x="0px" y="0px"
	 viewBox="0 0 1058.6 1064.7" style="enable-background:new 0 0 1058.6 1064.7;" xml:space="preserve">
<style type="text/css">
	.st0{fill:url(#SVGID_1_);}
</style>
<linearGradient id="SVGID_1_" gradientUnits="userSpaceOnUse" x1="15.286" y1="532.375" x2="1039.6996" y2="532.375">
	<stop  offset="0" style="stop-color:#EDEFF5"/>
	<stop  offset="0.4156" style="stop-color:#F1F2F7"/>
	<stop  offset="0.7278" style="stop-color:#F5F5F9"/>
	<stop  offset="1" style="stop-color:#FFFFFF"/>
</linearGradient>
<path class="st0" d="M862.2,363.2c11.8,2.6,23.2,7.3,33.6,14.5c14.6-9.3,42.1-28.6,52.9-48.7c-28.3-15.9-59.4-24.6-91-26.6
	C866.8,321.1,871.4,342.9,862.2,363.2L862.2,363.2z M628.4,491.4c25.1-3.8,42.5-21.3,51.3-32.3c-1.9-15.1-2.1-29.7-0.9-43.8
	c-10.7,1.4-26.1,3-42.4,3.7l-81,76.8l32,33.7c0.2-0.5,0.4-1,0.6-1.5C597.8,506.9,612.1,493.8,628.4,491.4L628.4,491.4z M936,448.8
	c18.7,11,62.3,33.4,88.5,21.5c7.4-3.4,12.6-9.6,16.2-18.3c-1.8-15.1-5.6-28.8-10.4-41c-5.2-9.1-10.8-18-17.4-26.5
	c-21.2,23.5-62.9,28-87.8,28.1C930.5,423.1,934.2,435.1,936,448.8L936,448.8z M740,629.4c4.1-26.2,27.6-46.7,47.2-59.5
	c-17.8-2.1-35.3-7-50.7-15.7c-18.9,2-53.1,8.7-70.1,32.5c-3.8,5.3-6.3,11.2-7.9,17.8l49.2,51.9c2.3,2.5,4.9,4.7,7.3,7
	c11.5,2.6,23.4,5,35.7,6.7C741.8,656.7,737.8,643.1,740,629.4L740,629.4z M721,543.6c-17.9-14.5-31.6-34.8-37.6-62.2
	c-0.5-2.1-0.6-4.1-1-6.1c-11.2,11.7-28.5,25-52.1,28.6c-16,2.4-26.2,19.5-30.8,29.5c-0.9,2-1.6,4.2-2.4,6.4l51.4,54.1
	c1.9-5.2,4.4-10.1,7.6-14.6C672,556.9,699.7,547.6,721,543.6L721,543.6z M798.7,355.3c2.9,4.6,4.7,9.5,5.7,14.5
	c13.1-6.6,28.3-9.7,44.5-8.6c11.3-20.3,4.1-42.5-5.6-59.2c-31,0.2-61.9,6.9-90.4,20.5C768.2,328.4,788.3,338.7,798.7,355.3z
	 M688.8,369.2l-38.2,36.2c11.8-0.9,22.5-2.2,29.8-3.2C682.1,390.8,685,379.8,688.8,369.2L688.8,369.2z M905.9,386.3
	c4.2,4,8.1,8.5,11.7,13.5c21.3,0.5,67.8-1.6,87.1-25c-1.9-2.2-3.7-4.5-5.7-6.6c-12.1-12.8-25.5-23.5-39.7-32.6
	C947.3,356.9,921.7,376,905.9,386.3L905.9,386.3z M888.1,686.9c-6.5,8.2-16,20.8-25.7,35.5c29.5-0.4,58.6-7.1,85.2-20.4
	c5.2-19.9,12.8-39.3,20.2-56.2C942.5,665.3,915.6,678.5,888.1,686.9L888.1,686.9z M853.9,668.6c28.5-5.5,56.8-15.8,83.5-33
	c-11.6-4.7-21.3-11.7-28.6-21.6c-15.3-21-17.5-48.9-16.6-68.8c-9.8,6.7-20.6,12.1-32,16.3C848.5,591,834,644.9,853.9,668.6
	L853.9,668.6z M761.8,426.5c0.1-0.2,0.1-0.2,0.1-0.4c4.3-20.6,15.3-37.4,30.4-48.8c-0.3-5.3-1.4-10.4-4.4-15.2
	c-10.3-16.6-33.9-26.1-47.5-30.5c-0.4,0.5-0.9,0.9-1.4,1.3c-17.6,19.8-35.7,51.8-35.7,98.5C720,419.6,745.8,422.7,761.8,426.5
	L761.8,426.5z M761.7,697.6c0.2-0.1,0.5-0.2,0.7-0.3c-0.6,0-1.2-0.2-1.8-0.2C761,697.2,761.4,697.4,761.7,697.6L761.7,697.6z
	 M839.4,671c-17.1-28.8-4.3-77.2,5.4-104.6c-6.9,1.7-13.8,3-20.8,3.8c-4.4,0.5-8.9,0.4-13.4,0.6c-16.9,8.9-53.4,31.2-58,60.5
	c-2.1,13.5,3.4,27.1,15.6,40.8C791.2,674.3,815.2,674.3,839.4,671L839.4,671z M1016.4,554c2.8-4.4,4.7-8.8,7-13.1
	c-12.3,5.8-24.5,9.1-36.4,9.1c-4.4,0-8.9-0.4-13.3-1.2c-24.4-4.5-41.9-20.6-52-32.5c-4.6,6.7-9.8,12.9-15.9,18.5
	c-1.8,17.1-2.8,49.7,13.3,71.9c7.4,10.1,18,16.8,31.2,20.1C974.3,608.9,996.7,585.4,1016.4,554L1016.4,554z M1029.8,481.9
	c-6.8,3.1-14.4,4.4-22.3,4.4c-24.7,0-52.5-12.5-70-22c0,0.5,0.1,0.9,0.1,1.3c0.2,14.4-3.1,27.4-8.8,39.2
	c8.1,10.4,24.3,27.3,47.3,31.6c17.8,3.2,36.7-2.2,56.1-15.3c6.1-16.6,9-32.5,9.4-47.5C1038.2,476.9,1034.3,479.9,1029.8,481.9
	L1029.8,481.9z M798.6,495.2c-26.5-6.8-40.4-27.4-38.5-56c-16.1-4-40.3-6.8-51.8,3.9c-1.8,1.7-3.1,3.9-4.3,6.2
	c0.8,8.5,2.1,17.4,4.2,26.8c10.5,48,49.7,66.7,87.6,69.3c-6-15.3-1.2-36.3,3.5-50.1C799.1,495.3,798.8,495.3,798.6,495.2
	L798.6,495.2z M810.9,545.6c3.4-0.2,6.9-0.2,10.1-0.6c36.3-4.2,72.5-23.5,85.6-53.8c-10.4-2.6-21.7-10.9-29.9-18.2
	c-12.9,16.7-40.5,25.8-64.7,24.2c-5.1,14.5-10.4,36.3-3.2,46.9C809.4,544.8,810.3,545,810.9,545.6L810.9,545.6z M800.9,699.4
	c-2.3,0-4.5-0.4-6.8-0.4c-5.2,1.9-10.9,4-16.7,6.2c22.5,9.8,46.3,15.4,70.1,16.9c7.1-11.2,14.3-21.5,20.5-29.9
	C845.5,697.2,823,699.4,800.9,699.4L800.9,699.4z M992.2,624.6c-8.8,17.2-20.6,42.4-28.9,68.8c10.7-6.7,20.9-14.4,30.3-23.4
	c15.6-14.8,28.3-31.4,38.4-49.3c-2.2-13.8-3.3-27.3-3.7-38.8C1016.9,598.1,1004.9,612.3,992.2,624.6z M1040.9,561.8
	c-0.2,9.5,0,22.9,1.3,37.7c10.2-24.4,15.7-50.4,16.3-76.7C1054.4,535.6,1048.7,548.6,1040.9,561.8L1040.9,561.8z M858.6,454.5
	c2.4-7.6-0.2-9.2-1.5-10c-6.2-3.8-17.9-1.6-20.5,1c-5,5-13,5-18-0.1c-4.9-5-4.9-13,0-18c11.8-11.6,36.3-13.9,51.6-4.7
	c12.9,7.8,17.5,22.2,12.8,38.6c10,9.2,21,16.8,27.7,18c0.9-4.4,1.6-8.8,1.6-13.5c-0.6-50.6-32.2-76.3-63.2-79.3
	c-25.8-2.6-55,10.4-62.2,44.8c-4.6,22.1,1.3,34.9,18.2,39.3C827.3,476.4,855.5,464.5,858.6,454.5L858.6,454.5z M574.5,8.2
	c-15.3-4.5-31.1-7.2-47-8.2c-5.8,21.9-10.1,49.9-13.4,81.8C532,65.5,557.4,39.4,574.5,8.2L574.5,8.2z M477,196.4
	C439.2,147,410.7,69.9,398.4,33.1c-11.7,7.5-23,16.1-33.4,26c-8.6,8.1-16.1,16.9-23.1,26.1c17.1,35.6,61.9,120.5,133.9,199.2
	C475.7,255.5,476.1,225.8,477,196.4L477,196.4z M496.6,0.1c-29.2,2.4-58.1,10.9-84.7,25.3c10.4,31.1,34.5,97.7,66.1,146.1
	C480.6,106.3,486.2,44.7,496.6,0.1z M512,103.6c-3.2,38.7-5,81.9-5.8,126.3C544.9,199.8,630.4,129,666.9,64.6
	c-0.1-0.1-0.1-0.2-0.2-0.2c-22.4-23.6-49.1-40.5-77.7-51.3C566.5,55.7,530.1,88.8,512,103.6L512,103.6z M715.9,162.6
	c-64.3,87.1-173.9,165.7-209.5,190c0.5,27.9,1.3,55,2.2,80.5c43.4-34.7,151-123.3,205.6-190.5C720.1,216.1,720.7,188.9,715.9,162.6
	L715.9,162.6z M506,249.3c-0.3,28.4-0.2,57,0.1,85c43.2-30.4,148.4-109,205.2-191.4c-6.8-23.7-18.2-46.2-34.1-66.1
	C634,149.1,538.1,225.1,506,249.3L506,249.3z M476.8,373.6c-0.5-21.1-0.8-43.7-1-67.1c-74.7-78.1-122.9-165-143.8-207.2
	c-21.2,33.2-32.5,71.1-33.5,109.2C343.7,258.5,421.4,339.9,476.8,373.6L476.8,373.6z M299.4,232.1c3.9,46,22.7,90.9,56.8,126.9
	l124.7,131.5c-1.1-21.9-2.6-56.9-3.7-99.2C423.5,361.9,348.2,285.3,299.4,232.1z M509.4,451.9c0.5,11.6,1,22.8,1.5,33.4l142.2-134.9
	c22-20.9,38.4-45.3,49.5-71.3C638.6,348.3,541.2,426.8,509.4,451.9L509.4,451.9z M200.2,450.2c12.9,8.9,43.2,29.9,45.6,55.1
	c1.9,21.5-8.7,41.7-32.4,61.9c-28.1-3.9-57.4,0.8-81.9,13.2c-6.4-11-15.5-20.3-20.6-25.7c-16.7-17-33.2-30.4-49.1-40
	c0.6-0.3,1.3-0.8,1.9-1.1c17.1-10.6,62.4-38.8,68.7-81c0.2-1.3,0.3-2.6,0.4-3.9C159.8,430.6,182,437.7,200.2,450.2L200.2,450.2z
	 M270.7,497.6c-2.5-10.2-6.5-19.9-12.1-28.6c7.3-3.4,16.1-4.6,28.3-3.8c0,0,3.1,0.7,4.1,0.3c8.8,1,17.5,2.7,25.2,4.1l2.8,0.6
	c16.1,3.1,36.1,7.2,48.5,21.8c10.7,12.7,7.8,37,0.1,55.3c-10.3,24.5-27.1,39.9-42.4,52.3c-11.2,0-22.4,0.9-32.4,2.6
	c-2.2,0.4-4.3,1.1-5.9,1.8c-14.3-15.6-33.1-26.9-54.8-33.1C252.6,554.4,278,526.9,270.7,497.6L270.7,497.6z M222.8,729.4l-0.6,0.5
	c-18,14.5-33.7,23.1-41.3,26.8c1.8-8.3,0.8-16.1-3-23.5c-12.7-24.6-54.9-38.4-93.4-45.9l3.7-3.1c20.1-16.5,47.5-39.1,50.6-76.5
	c0.4-5.1-0.3-10.3-2.3-16c1.7-1.2,3.7-2.3,5.9-3.3c14.8-7,37.9-8.9,60.7-5.4c0,0,4.2,1.5,5.8,1.1c30.1,6.3,52.2,21,60.7,40.5
	C288.4,667.5,248.3,708.7,222.8,729.4L222.8,729.4z M192.9,762.7c33.1,3.1,66.8-1.5,98.2-14.1c-20.1-2-40.2-5.3-59.4-8.9
	C219.9,748.6,207.2,756.1,192.9,762.7z M154,739.4c-13.2-21.2-55.8-32.3-91.2-38.1c27.1,27.3,59.9,45.6,94.7,55
	C158.3,750.2,157.2,744.6,154,739.4L154,739.4z M313.7,451.8c11.8,0.9,24,3,36.4,6.3c13.3,3.5,29.4,9.1,39.6,21.7
	c5.1-3.2,9.9-6.3,14.6-9.4l-54.6-57.6C338.7,427.4,325.6,440.8,313.7,451.8L313.7,451.8z M112.2,620.3c4.8-17.5-5.1-29.9-14.6-42
	C74,548.2,37.7,519.8,2.9,514.7c-9.5,57.2,4.2,118,42.1,166.7c6.1,0.7,12.9,1.5,20.2,2.6C85.4,667,103.9,651,112.2,620.3
	L112.2,620.3z M319.8,615.3l-0.3,0.1c-8-0.4-16.4-0.2-24.7,0.5c20.5,39.9-24.3,89-45,108.8c21.8,4,46.3,7.6,71.6,9
	C334,726,345.9,717,357,706.5l48.2-45.7C385.7,626.1,348.2,616.8,319.8,615.3L319.8,615.3z M113.8,378.7
	c5.1,6.9,11.6,17.1,15.5,28.6c1.4-0.6,2.7-1.1,4-1.6c3.8-1.2,7.5-2.7,11-4.3c21.2-10,40.9-29,52.4-55.4
	c-31.3,0.1-62.3,7.4-90.3,22.2C109,372,111.6,375.7,113.8,378.7L113.8,378.7z M49,507.8c20.1-13.1,46.7-34,57.4-66.6
	c4.9-15.5-4.1-31.9-13.1-46.2c-2.9-4.7-6-9-9.4-12.8c-6.7,4.9-13.3,10-19.4,15.9C35,426,15.9,460.6,6.5,497.4
	C19.9,497.3,34.1,500.8,49,507.8L49,507.8z M399.7,488.7c-1.2,0.8-2.4,1.3-3.6,1.8c2.6,6.4,3.7,13.3,3.1,21
	c-3,45.2-29.1,71.1-52,89.8c22.5,3,49.6,11.8,69.9,33.9c0.2,0,0.5-0.1,0.7-0.1c5.9-0.4,11.5-1.3,17-2.3l65-61.7l-86.1-90.8
	c-2.4,1.5-4.8,2.9-7,4.2L399.7,488.7L399.7,488.7z M149.9,410c-1.7,0.8-3.4,1.5-5.1,2.3c37.1,2.3,82,15.9,107.6,47.9
	c12-4.7,24.8-7.6,38.3-8.5c20.5-18.6,35.3-36,45-52.2c-33.6-30.1-74.5-47.5-116.1-52.1C203.6,378.3,175.6,397.9,149.9,410L149.9,410
	z M590.7,747.3c32.3-15.7,60.2-36.9,85.8-59.2l-24.3-25.7c-38.3,24.5-79.2,41.8-110.8,53.7c-54.5,20.5-136.7,37.2-202,139.5
	c-1.8,26.4,1.7,52.9,10.5,77.8c7.4-20.3,14.1-41.3,21.5-60.3C394,815,532.5,775.6,590.7,747.3L590.7,747.3z M557,1064.3
	c47.4-3.5,94.2-22.9,131.5-58.3c18.9-17.9,33.7-38.5,44.4-60.5c-25.1,16-55.5,25.6-79.9,25.6C623.3,971,557.1,1040.8,557,1064.3
	L557,1064.3z M587,593.8l-24.3-25.6L433.4,690.8c7.6-4.4,15.2-8.2,22.7-11.4C487.5,665.8,540.7,629.4,587,593.8L587,593.8z
	 M451.3,737.2c76.3-24,138.5-56.5,185.6-90.9L610,618c-51.9,47.7-100.9,68.3-150.5,79.8c-26.6,6.2-52.3,22.1-75.6,42.8
	c-20.4,25.6-33.8,54.9-40.4,85.2C375,782,411.4,749.8,451.3,737.2L451.3,737.2z M548.3,968.3c-15.8,17.5-61.5,52.8-95.7,76.9
	c26.1,12.3,54.4,18.8,83,19.6c25.8-35.8,65.2-106.7,124-115.3c31-4.5,59.9-19.4,85.2-33.8c7.8-25.1,10.8-51.5,8.9-77.5
	C679.1,860.8,605.4,905.3,548.3,968.3L548.3,968.3z M394,1003.7c13.1,13.3,27.6,24.4,43.1,33.3c45.3-36.7,79.2-66.6,99.9-94
	c39.8-52.7,131.2-101.1,180.7-106.5c13.3-1.5,24.8-3.9,35.2-7.3c-1.8-16-5.6-31.9-11.1-47.2c-64,45-139.8,75.6-194,93.2
	C497.2,891.6,433.6,953.6,394,1003.7L394,1003.7z M584.3,767.8C481.1,795.7,427.3,828,380,906.4c-8.7,14.5-16.8,28.5-24.2,41.7
	c6.9,15.4,15.9,30,27.2,43.5c29.4-49.3,66.5-100.7,111-118.5c44.2-17.7,158.4-62.4,239.3-111.2c-8.2-16.8-18.8-32.7-31.7-47.2
	C667.3,737,628.9,755.7,584.3,767.8L584.3,767.8z"/>
</svg>
