<?xml version="1.0" encoding="UTF-8"?>
<svg id="Layer_1" data-name="Layer 1" xmlns="http://www.w3.org/2000/svg" xmlns:xlink="http://www.w3.org/1999/xlink" viewBox="0 0 1058.56 1064.74">
  <defs>
    <style>
      .cls-1 {
        fill: url(#linear-gradient-15);
      }

      .cls-2 {
        fill: url(#linear-gradient-13);
      }

      .cls-3 {
        fill: url(#linear-gradient-28);
      }

      .cls-4 {
        fill: url(#linear-gradient-42);
      }

      .cls-5 {
        fill: url(#linear-gradient-46);
      }

      .cls-6 {
        fill: url(#linear-gradient-2);
      }

      .cls-7 {
        fill: url(#linear-gradient-43);
      }

      .cls-8 {
        fill: url(#linear-gradient-25);
      }

      .cls-9 {
        fill: url(#linear-gradient-10);
      }

      .cls-10 {
        fill: url(#linear-gradient-12);
      }

      .cls-11 {
        fill: url(#linear-gradient-40);
      }

      .cls-12 {
        fill: url(#linear-gradient-27);
      }

      .cls-13 {
        fill: url(#linear-gradient-37);
      }

      .cls-14 {
        fill: url(#linear-gradient-39);
      }

      .cls-15 {
        fill: url(#linear-gradient-47);
      }

      .cls-16 {
        fill: url(#linear-gradient-26);
      }

      .cls-17 {
        fill: url(#linear-gradient-4);
      }

      .cls-18 {
        fill: url(#linear-gradient-35);
      }

      .cls-19 {
        fill: url(#linear-gradient-30);
      }

      .cls-20 {
        fill: url(#linear-gradient-44);
      }

      .cls-21 {
        fill: url(#linear-gradient-49);
      }

      .cls-22 {
        fill: url(#linear-gradient-3);
      }

      .cls-23 {
        fill: url(#linear-gradient-34);
      }

      .cls-24 {
        fill: url(#linear-gradient-5);
      }

      .cls-25 {
        fill: url(#linear-gradient-38);
      }

      .cls-26 {
        fill: url(#linear-gradient-22);
      }

      .cls-27 {
        fill: url(#linear-gradient-24);
      }

      .cls-28 {
        fill: url(#linear-gradient-33);
      }

      .cls-29 {
        fill: url(#linear-gradient-8);
      }

      .cls-30 {
        fill: url(#linear-gradient-14);
      }

      .cls-31 {
        fill: url(#linear-gradient-29);
      }

      .cls-32 {
        fill: url(#linear-gradient-20);
      }

      .cls-33 {
        fill: url(#linear-gradient-17);
      }

      .cls-34 {
        fill: url(#linear-gradient-50);
      }

      .cls-35 {
        fill: url(#linear-gradient-7);
      }

      .cls-36 {
        fill: url(#linear-gradient-9);
      }

      .cls-37 {
        fill: url(#linear-gradient-11);
      }

      .cls-38 {
        fill: url(#linear-gradient-19);
      }

      .cls-39 {
        fill: url(#linear-gradient-6);
      }

      .cls-40 {
        fill: url(#linear-gradient-36);
      }

      .cls-41 {
        fill: url(#linear-gradient-21);
      }

      .cls-42 {
        fill: url(#linear-gradient-45);
      }

      .cls-43 {
        fill: url(#linear-gradient-48);
      }

      .cls-44 {
        fill: url(#linear-gradient-32);
      }

      .cls-45 {
        fill: url(#linear-gradient-41);
      }

      .cls-46 {
        fill: url(#linear-gradient-16);
      }

      .cls-47 {
        fill: url(#linear-gradient);
      }

      .cls-48 {
        fill: url(#linear-gradient-23);
      }

      .cls-49 {
        fill: url(#linear-gradient-31);
      }

      .cls-50 {
        fill: url(#linear-gradient-18);
      }
    </style>
    <linearGradient id="linear-gradient" x1="-426.39" y1="1075.93" x2="-425.39" y2="1075.93" gradientTransform="translate(451360.35 1145924.58) scale(1058.56 -1064.74)" gradientUnits="userSpaceOnUse">
      <stop offset="0" stop-color="#231f20"/>
      <stop offset="1" stop-color="#fff"/>
    </linearGradient>
    <linearGradient id="linear-gradient-2" y1="1075.8" y2="1075.8" xlink:href="#linear-gradient"/>
    <linearGradient id="linear-gradient-3" y1="1075.84" y2="1075.84" xlink:href="#linear-gradient"/>
    <linearGradient id="linear-gradient-4" y1="1075.67" y2="1075.67" xlink:href="#linear-gradient"/>
    <linearGradient id="linear-gradient-5" y1="1075.74" y2="1075.74" xlink:href="#linear-gradient"/>
    <linearGradient id="linear-gradient-6" y1="1075.93" y2="1075.93" xlink:href="#linear-gradient"/>
    <linearGradient id="linear-gradient-7" y1="1075.88" y2="1075.88" xlink:href="#linear-gradient"/>
    <linearGradient id="linear-gradient-8" y1="1075.9" y2="1075.9" xlink:href="#linear-gradient"/>
    <linearGradient id="linear-gradient-9" y1="1075.6" y2="1075.6" xlink:href="#linear-gradient"/>
    <linearGradient id="linear-gradient-10" y1="1075.68" y2="1075.68" xlink:href="#linear-gradient"/>
    <linearGradient id="linear-gradient-11" y1="1075.89" y2="1075.89" xlink:href="#linear-gradient"/>
    <linearGradient id="linear-gradient-12" y1="1075.59" y2="1075.59" xlink:href="#linear-gradient"/>
    <linearGradient id="linear-gradient-13" y1="1075.66" y2="1075.66" xlink:href="#linear-gradient"/>
    <linearGradient id="linear-gradient-14" y1="1075.71" y2="1075.71" xlink:href="#linear-gradient"/>
    <linearGradient id="linear-gradient-15" y1="1075.78" y2="1075.78" xlink:href="#linear-gradient"/>
    <linearGradient id="linear-gradient-16" y1="1075.79" y2="1075.79" xlink:href="#linear-gradient"/>
    <linearGradient id="linear-gradient-17" y1="1075.77" y2="1075.77" xlink:href="#linear-gradient"/>
    <linearGradient id="linear-gradient-18" y1="1075.58" y2="1075.58" xlink:href="#linear-gradient"/>
    <linearGradient id="linear-gradient-19" y1="1075.65" y2="1075.65" xlink:href="#linear-gradient"/>
    <linearGradient id="linear-gradient-20" y1="1075.72" y2="1075.72" xlink:href="#linear-gradient"/>
    <linearGradient id="linear-gradient-21" y1="1075.84" y2="1075.84" xlink:href="#linear-gradient"/>
    <linearGradient id="linear-gradient-22" y1="1076.21" y2="1076.21" xlink:href="#linear-gradient"/>
    <linearGradient id="linear-gradient-23" y1="1076.1" y2="1076.1" xlink:href="#linear-gradient"/>
    <linearGradient id="linear-gradient-24" y1="1076.17" y2="1076.17" xlink:href="#linear-gradient"/>
    <linearGradient id="linear-gradient-25" y1="1076.13" y2="1076.13" xlink:href="#linear-gradient"/>
    <linearGradient id="linear-gradient-26" y1="1075.97" y2="1075.97" xlink:href="#linear-gradient"/>
    <linearGradient id="linear-gradient-27" y1="1076.05" y2="1076.05" xlink:href="#linear-gradient"/>
    <linearGradient id="linear-gradient-28" y1="1076.02" y2="1076.02" xlink:href="#linear-gradient"/>
    <linearGradient id="linear-gradient-29" y1="1075.91" y2="1075.91" xlink:href="#linear-gradient"/>
    <linearGradient id="linear-gradient-30" y1="1075.89" y2="1075.89" xlink:href="#linear-gradient"/>
    <linearGradient id="linear-gradient-31" y1="1075.69" y2="1075.69" xlink:href="#linear-gradient"/>
    <linearGradient id="linear-gradient-32" y1="1075.54" y2="1075.54" xlink:href="#linear-gradient"/>
    <linearGradient id="linear-gradient-33" y1="1075.56" y2="1075.56" xlink:href="#linear-gradient"/>
    <linearGradient id="linear-gradient-34" y1="1075.83" y2="1075.83" xlink:href="#linear-gradient"/>
    <linearGradient id="linear-gradient-35" x1="-426.39" y1="1075.68" x2="-425.39" y2="1075.68" xlink:href="#linear-gradient"/>
    <linearGradient id="linear-gradient-36" y1="1075.62" y2="1075.62" xlink:href="#linear-gradient"/>
    <linearGradient id="linear-gradient-37" y1="1075.61" y2="1075.61" xlink:href="#linear-gradient"/>
    <linearGradient id="linear-gradient-38" y1="1075.89" y2="1075.89" xlink:href="#linear-gradient"/>
    <linearGradient id="linear-gradient-39" y1="1075.83" y2="1075.83" xlink:href="#linear-gradient"/>
    <linearGradient id="linear-gradient-40" y1="1075.77" y2="1075.77" xlink:href="#linear-gradient"/>
    <linearGradient id="linear-gradient-41" y1="1075.72" y2="1075.72" xlink:href="#linear-gradient"/>
    <linearGradient id="linear-gradient-42" y1="1075.74" y2="1075.74" xlink:href="#linear-gradient"/>
    <linearGradient id="linear-gradient-43" y1="1075.87" y2="1075.87" xlink:href="#linear-gradient"/>
    <linearGradient id="linear-gradient-44" y1="1075.5" y2="1075.5" xlink:href="#linear-gradient"/>
    <linearGradient id="linear-gradient-45" y1="1075.3" y2="1075.3" xlink:href="#linear-gradient"/>
    <linearGradient id="linear-gradient-46" y1="1075.66" y2="1075.66" xlink:href="#linear-gradient"/>
    <linearGradient id="linear-gradient-47" y1="1075.57" y2="1075.57" xlink:href="#linear-gradient"/>
    <linearGradient id="linear-gradient-48" y1="1075.35" y2="1075.35" xlink:href="#linear-gradient"/>
    <linearGradient id="linear-gradient-49" y1="1075.39" y2="1075.39" xlink:href="#linear-gradient"/>
    <linearGradient id="linear-gradient-50" y1="1075.44" y2="1075.44" xlink:href="#linear-gradient"/>
  </defs>
  <path class="cls-47" d="M862.15,363.2c11.75,2.58,23.25,7.27,33.61,14.53,14.59-9.29,42.06-28.6,52.9-48.73-28.26-15.85-59.43-24.58-90.96-26.6,9.08,18.67,13.65,40.5,4.45,60.79Z"/>
  <path class="cls-6" d="M628.36,491.44c25.14-3.83,42.52-21.27,51.26-32.27-1.87-15.07-2.1-29.67-.91-43.81-10.7,1.41-26.14,3.04-42.44,3.72l-80.95,76.75,32.01,33.74c.21-.47.36-1,.59-1.46,9.86-21.23,24.19-34.26,40.44-36.68Z"/>
  <path class="cls-22" d="M936.05,448.79c18.65,10.96,62.34,33.43,88.52,21.52,7.42-3.37,12.63-9.64,16.15-18.33-1.8-15.06-5.64-28.83-10.37-41-5.15-9.1-10.8-17.99-17.37-26.45-21.2,23.53-62.86,27.95-87.81,28.1,5.29,10.44,9.03,22.46,10.87,36.16Z"/>
  <path class="cls-17" d="M740,629.37c4.1-26.17,27.63-46.68,47.15-59.46-17.85-2.1-35.28-7.04-50.72-15.73-18.88,2-53.13,8.69-70.13,32.55-3.76,5.28-6.33,11.24-7.87,17.77l49.21,51.91c2.35,2.45,4.86,4.65,7.3,6.98,11.51,2.61,23.36,4.96,35.74,6.67-8.88-13.35-12.84-26.93-10.69-40.71Z"/>
  <path class="cls-24" d="M721.01,543.64c-17.88-14.45-31.63-34.76-37.62-62.18-.45-2.06-.64-4.08-1.03-6.11-11.21,11.7-28.51,25.04-52.11,28.63-16.01,2.4-26.17,19.52-30.81,29.47-.94,2-1.59,4.23-2.42,6.36l51.36,54.11c1.92-5.15,4.37-10.07,7.59-14.58,16.01-22.46,43.76-31.71,65.04-35.71Z"/>
  <path class="cls-39" d="M798.67,355.32c2.9,4.6,4.67,9.46,5.74,14.49,13.12-6.6,28.31-9.7,44.5-8.64,11.35-20.33,4.1-42.47-5.57-59.18-30.97.16-61.9,6.85-90.42,20.51,15.31,5.86,35.38,16.19,45.75,32.82Z"/>
  <path class="cls-35" d="M688.8,369.22l-38.19,36.24c11.78-.92,22.45-2.21,29.79-3.2,1.75-11.46,4.61-22.46,8.39-33.05Z"/>
  <path class="cls-29" d="M905.87,386.31c4.24,4.02,8.14,8.52,11.7,13.53,21.28.5,67.8-1.56,87.09-24.96-1.91-2.19-3.66-4.49-5.68-6.63-12.12-12.75-25.55-23.48-39.74-32.58-11.9,21.24-37.5,40.3-53.37,50.64Z"/>
  <path class="cls-36" d="M888.1,686.87c-6.45,8.16-15.95,20.79-25.65,35.53,29.46-.36,58.61-7.06,85.23-20.37,5.24-19.86,12.75-39.34,20.24-56.15-25.37,19.45-52.35,32.58-79.82,40.99Z"/>
  <path class="cls-9" d="M853.91,668.59c28.49-5.45,56.77-15.84,83.46-32.95-11.56-4.65-21.29-11.65-28.58-21.62-15.35-21.01-17.47-48.92-16.61-68.81-9.84,6.67-20.57,12.11-32.01,16.3-11.64,29.49-26.21,83.36-6.26,107.07Z"/>
  <path class="cls-37" d="M761.81,426.53c.07-.16.07-.23.09-.4,4.32-20.64,15.34-37.42,30.44-48.84-.28-5.31-1.43-10.41-4.43-15.24-10.33-16.61-33.9-26.11-47.51-30.48-.43.47-.93.86-1.36,1.3-17.63,19.83-35.66,51.76-35.7,98.51,16.64-11.82,42.49-8.64,58.47-4.84Z"/>
  <path class="cls-10" d="M761.74,697.56c.21-.07.47-.2.72-.29-.62-.05-1.17-.18-1.78-.24.34.19.69.37,1.06.54Z"/>
  <path class="cls-2" d="M839.37,671.03c-17.1-28.75-4.29-77.21,5.37-104.57-6.86,1.74-13.84,3.05-20.8,3.85-4.4.46-8.91.44-13.38.59-16.92,8.88-53.44,31.16-58.05,60.47-2.08,13.46,3.4,27.1,15.6,40.8,23.07,2.13,47.08,2.13,71.25-1.13Z"/>
  <path class="cls-30" d="M1016.37,554.01c2.78-4.39,4.72-8.8,7-13.13-12.29,5.84-24.46,9.11-36.43,9.11-4.44,0-8.9-.44-13.3-1.22-24.37-4.53-41.94-20.64-51.98-32.5-4.58,6.66-9.83,12.89-15.93,18.46-1.85,17.06-2.83,49.74,13.33,71.87,7.43,10.14,17.97,16.8,31.22,20.1,24-17.82,46.46-41.34,66.1-72.69Z"/>
  <path class="cls-1" d="M1029.81,481.89c-6.82,3.1-14.42,4.39-22.34,4.39-24.71,0-52.46-12.53-69.99-22.05,0,.46.12.85.12,1.29.2,14.39-3.14,27.41-8.82,39.16,8.08,10.39,24.3,27.35,47.31,31.59,17.81,3.2,36.68-2.2,56.14-15.26,6.1-16.57,8.99-32.48,9.4-47.46-3.44,3.37-7.28,6.3-11.8,8.33Z"/>
  <path class="cls-46" d="M798.62,495.17c-26.55-6.82-40.38-27.38-38.54-56.04-16.12-3.95-40.27-6.83-51.8,3.9-1.82,1.69-3.13,3.88-4.27,6.21.8,8.52,2.11,17.41,4.18,26.81,10.54,48.04,49.66,66.67,87.57,69.34-6.04-15.33-1.2-36.28,3.53-50.08-.22-.05-.47-.05-.67-.14Z"/>
  <path class="cls-33" d="M810.9,545.6c3.42-.18,6.86-.18,10.14-.57,36.35-4.16,72.49-23.48,85.63-53.83-10.44-2.59-21.66-10.93-29.87-18.24-12.89,16.68-40.51,25.77-64.72,24.24-5.1,14.48-10.39,36.28-3.2,46.89.48.69,1.43.92,2.02,1.52Z"/>
  <path class="cls-50" d="M800.9,699.42c-2.31,0-4.54-.39-6.85-.41-5.2,1.86-10.86,3.97-16.71,6.2,22.52,9.77,46.27,15.44,70.12,16.93,7.13-11.21,14.28-21.51,20.51-29.92-22.44,5.02-45.02,7.2-67.07,7.2Z"/>
  <path class="cls-38" d="M992.25,624.62c-8.82,17.17-20.56,42.39-28.93,68.75,10.67-6.68,20.87-14.39,30.3-23.38,15.59-14.78,28.35-31.44,38.36-49.34-2.24-13.81-3.31-27.26-3.71-38.81-11.35,16.26-23.41,30.45-36.02,42.78Z"/>
  <path class="cls-32" d="M1040.89,561.84c-.17,9.52,0,22.93,1.34,37.73,10.22-24.39,15.67-50.44,16.32-76.67-4.13,12.69-9.88,25.67-17.66,38.94Z"/>
  <path class="cls-41" d="M858.56,454.54c2.37-7.65-.16-9.19-1.53-10.03-6.24-3.81-17.89-1.64-20.51.95-4.97,4.95-13.03,4.95-17.96-.07-4.94-4.97-4.93-13,.05-17.98,11.75-11.61,36.33-13.85,51.58-4.68,12.86,7.84,17.55,22.24,12.76,38.62,10.03,9.2,21.04,16.78,27.66,17.95.9-4.35,1.63-8.75,1.58-13.47-.58-50.56-32.18-76.31-63.24-79.31-25.84-2.62-54.98,10.37-62.21,44.82-4.61,22.08,1.34,34.89,18.24,39.29,22.34,5.72,50.54-6.16,53.58-16.08Z"/>
  <path class="cls-26" d="M574.46,8.19c-15.35-4.51-31.12-7.19-47.05-8.19-5.75,21.93-10.13,49.88-13.4,81.81,18.04-16.29,43.4-42.43,60.44-73.62Z"/>
  <path class="cls-48" d="M476.99,196.41c-37.75-49.44-66.32-126.52-78.63-163.36-11.73,7.45-22.95,16.11-33.41,26.03-8.59,8.13-16.13,16.95-23.07,26.08,17.11,35.6,61.93,120.5,133.85,199.25,0-28.87.37-58.61,1.25-88Z"/>
  <path class="cls-27" d="M496.56.12c-29.22,2.4-58.08,10.93-84.74,25.26,10.37,31.13,34.48,97.71,66.06,146.12,2.69-65.21,8.3-126.76,18.68-171.38Z"/>
  <path class="cls-8" d="M512.03,103.58c-3.21,38.73-5.01,81.93-5.79,126.35,38.67-30.11,124.13-100.91,160.63-165.28-.07-.05-.12-.15-.19-.21-22.36-23.56-49.07-40.52-77.72-51.29-22.46,42.52-58.88,75.63-76.93,90.43Z"/>
  <path class="cls-16" d="M715.94,162.57c-64.33,87.06-173.91,165.66-209.54,190.05.51,27.94,1.27,55.05,2.22,80.51,43.38-34.71,151.01-123.33,205.65-190.52,5.87-26.5,6.41-53.73,1.66-80.04Z"/>
  <path class="cls-12" d="M505.97,249.28c-.31,28.35-.23,56.99.15,85.01,43.24-30.39,148.42-109,205.21-191.35-6.85-23.68-18.15-46.16-34.11-66.14-43.23,72.33-139.16,148.27-171.24,172.49Z"/>
  <path class="cls-3" d="M476.77,373.6c-.47-21.15-.82-43.73-.97-67.09-74.68-78.12-122.89-165-143.79-207.16-21.21,33.25-32.53,71.08-33.47,109.22,45.12,49.88,122.85,131.28,178.23,165.03Z"/>
  <path class="cls-31" d="M299.37,232.08c3.94,45.98,22.68,90.95,56.79,126.89l124.74,131.52c-1.08-21.86-2.58-56.93-3.7-99.17-53.7-29.46-129-106.03-177.83-159.24Z"/>
  <path class="cls-19" d="M509.35,451.9c.49,11.6,1,22.77,1.52,33.39l142.2-134.87c22-20.85,38.39-45.27,49.45-71.34-63.96,69.23-161.33,147.69-193.18,172.82Z"/>
  <path class="cls-49" d="M200.25,450.2c12.94,8.9,43.18,29.92,45.55,55.06,1.95,21.49-8.68,41.72-32.45,61.87-28.14-3.87-57.38.78-81.9,13.23-6.38-11.05-15.46-20.34-20.62-25.65-16.68-16.97-33.22-30.4-49.14-39.97.64-.32,1.3-.75,1.93-1.11,17.09-10.61,62.39-38.76,68.7-81.03.21-1.3.32-2.62.38-3.87,27.14,1.88,49.26,8.96,67.55,21.48ZM270.72,497.62c-2.52-10.22-6.55-19.88-12.14-28.59,7.29-3.35,16.12-4.6,28.27-3.76,0,0,3.06.67,4.09.34,8.77,1,17.55,2.68,25.23,4.14l2.83.58c16.09,3.15,36.14,7.17,48.49,21.83,10.72,12.74,7.8,36.96.12,55.3-10.33,24.52-27.14,39.9-42.38,52.35-11.23,0-22.38.9-32.4,2.59-2.22.39-4.33,1.09-5.93,1.84-14.29-15.57-33.09-26.91-54.82-33.08,20.5-16.79,45.97-44.22,38.62-73.53ZM222.84,729.41l-.6.54c-18,14.48-33.66,23.07-41.29,26.82,1.82-8.3.78-16.13-3.01-23.52-12.71-24.63-54.87-38.36-93.37-45.9l3.72-3.13c20.1-16.49,47.55-39.12,50.59-76.5.43-5.09-.29-10.34-2.26-15.96,1.74-1.24,3.69-2.35,5.89-3.34,14.81-6.98,37.9-8.94,60.69-5.36,0,0,4.16,1.54,5.83,1.14,30.09,6.32,52.18,20.98,60.69,40.48,18.66,42.85-21.39,84.03-46.9,104.74Z"/>
  <path class="cls-44" d="M192.87,762.7c33.15,3.14,66.83-1.49,98.18-14.06-20.15-2-40.19-5.28-59.4-8.87-11.73,8.78-24.44,16.3-38.78,22.93Z"/>
  <path class="cls-28" d="M153.97,739.37c-13.16-21.15-55.76-32.32-91.24-38.11,27.12,27.3,59.91,45.61,94.69,54.98.86-6.03-.22-11.68-3.46-16.88Z"/>
  <path class="cls-23" d="M313.67,451.83c11.81.89,24.03,2.98,36.4,6.3,13.27,3.54,29.41,9.1,39.65,21.68,5.15-3.16,9.92-6.31,14.59-9.4l-54.61-57.56c-10.99,14.53-24.14,28-36.02,38.98Z"/>
  <path class="cls-18" d="M112.16,620.31c4.75-17.49-5.06-29.92-14.57-42-23.59-30.16-59.88-58.55-94.67-63.66-9.52,57.19,4.25,118.02,42.08,166.73,6.07.67,12.86,1.5,20.16,2.57,20.28-16.93,38.74-32.91,47-63.63Z"/>
  <path class="cls-40" d="M209.05,584.19c-1.68.4-5.83-1.14-5.83-1.14-22.79-3.58-45.88-1.62-60.69,5.36-2.2.99-4.14,2.1-5.89,3.34,1.96,5.62,2.68,10.88,2.26,15.96-3.05,37.38-30.5,60.01-50.59,76.5l-3.72,3.13c38.49,7.54,80.66,21.27,93.37,45.9,3.8,7.39,4.83,15.22,3.01,23.52,7.62-3.75,23.29-12.34,41.29-26.82l.6-.54c25.51-20.71,65.56-61.9,46.9-104.74-8.51-19.5-30.6-34.16-60.69-40.48Z"/>
  <path class="cls-13" d="M319.81,615.32l-.34.06c-8.02-.36-16.4-.2-24.66.46,20.46,39.92-24.26,89.01-45.02,108.77,21.85,3.98,46.29,7.58,71.62,9,12.55-7.6,24.53-16.59,35.61-27.07l48.18-45.74c-19.53-34.72-57.03-43.97-85.39-45.49Z"/>
  <path class="cls-25" d="M113.85,378.67c5.12,6.9,11.63,17.15,15.5,28.61,1.38-.57,2.73-1.09,4.01-1.58,3.76-1.18,7.46-2.66,11.03-4.33,21.17-9.97,40.88-29.05,52.38-55.35-31.3.09-62.28,7.42-90.3,22.19,2.56,3.75,5.17,7.53,7.38,10.46Z"/>
  <path class="cls-14" d="M48.96,507.81c20.09-13.06,46.69-33.96,57.39-66.6,4.95-15.47-4.12-31.94-13.05-46.17-2.9-4.66-6.03-8.96-9.43-12.83-6.74,4.85-13.27,10.04-19.44,15.88-29.39,27.91-48.56,62.5-57.9,99.3,13.39-.08,27.56,3.36,42.43,10.43Z"/>
  <path class="cls-11" d="M132.31,432.59c-6.32,42.28-51.61,70.43-68.7,81.03-.63.37-1.28.8-1.93,1.11,15.93,9.57,32.46,23,49.14,39.97,5.16,5.31,14.24,14.61,20.62,25.65,24.52-12.45,53.76-17.1,81.9-13.23,23.78-20.16,34.4-40.38,32.45-61.87-2.37-25.14-32.62-46.16-45.55-55.06-18.29-12.53-40.41-19.6-67.55-21.48-.07,1.25-.18,2.57-.38,3.87Z"/>
  <path class="cls-45" d="M399.66,488.7c-1.16.75-2.37,1.3-3.57,1.77,2.65,6.39,3.69,13.29,3.13,21.03-2.98,45.16-29.13,71.09-52.03,89.78,22.52,3.05,49.56,11.82,69.86,33.89.23,0,.48-.07.73-.07,5.89-.4,11.5-1.26,16.98-2.3l65.05-61.71-86.12-90.78c-2.4,1.45-4.77,2.88-7.04,4.21l-6.98,4.19Z"/>
  <path class="cls-4" d="M232.1,571.16c21.72,6.17,40.52,17.51,54.82,33.08,1.6-.75,3.71-1.45,5.93-1.84,10.01-1.69,21.17-2.59,32.4-2.59,15.24-12.45,32.05-27.82,42.38-52.35,7.67-18.34,10.6-42.56-.12-55.3-12.35-14.66-32.4-18.68-48.49-21.83l-2.83-.58c-7.68-1.46-16.47-3.14-25.23-4.14-1.03.33-4.09-.34-4.09-.34-12.14-.84-20.98.41-28.27,3.76,5.58,8.71,9.62,18.37,12.14,28.59,7.35,29.32-18.12,56.74-38.62,73.53Z"/>
  <path class="cls-7" d="M149.9,409.97c-1.71.82-3.39,1.55-5.1,2.27,37.15,2.31,82.02,15.85,107.62,47.87,11.98-4.68,24.82-7.59,38.32-8.55,20.52-18.56,35.34-36.04,44.95-52.25-33.62-30.07-74.49-47.46-116.15-52.1-15.99,31.05-43.99,50.68-69.63,62.75Z"/>
  <path class="cls-20" d="M590.74,747.3c32.26-15.66,60.2-36.9,85.77-59.18l-24.34-25.69c-38.35,24.49-79.16,41.84-110.78,53.69-54.54,20.47-136.66,37.23-201.98,139.46-1.75,26.41,1.7,52.94,10.45,77.84,7.43-20.32,14.15-41.29,21.54-60.33,22.57-58.06,161.12-97.47,219.34-125.8Z"/>
  <path class="cls-42" d="M557.05,1064.27c47.41-3.53,94.17-22.87,131.52-58.34,18.87-17.88,33.65-38.46,44.39-60.54-25.06,15.99-55.53,25.56-79.86,25.56-29.84,0-96.01,69.82-96.06,93.32Z"/>
  <path class="cls-5" d="M587,593.75l-24.3-25.62-129.27,122.64c7.59-4.38,15.16-8.19,22.68-11.43,31.41-13.57,84.57-49.95,130.89-85.58Z"/>
  <path class="cls-15" d="M451.27,737.23c76.33-24.05,138.49-56.52,185.59-90.93l-26.83-28.27c-51.89,47.67-100.92,68.3-150.46,79.82-26.58,6.2-52.33,22.11-75.63,42.82-20.35,25.63-33.82,54.93-40.37,85.22,31.48-43.94,67.88-76.14,107.7-88.65Z"/>
  <path class="cls-43" d="M548.26,968.26c-15.84,17.5-61.5,52.82-95.68,76.86,26.14,12.28,54.41,18.84,82.97,19.63,25.85-35.85,65.17-106.74,124.01-115.3,31-4.49,59.88-19.39,85.18-33.81,7.78-25.13,10.8-51.46,8.9-77.51-74.56,22.71-148.23,67.22-205.37,130.14Z"/>
  <path class="cls-21" d="M393.96,1003.7c13.12,13.27,27.64,24.39,43.12,33.33,45.3-36.68,79.19-66.6,99.9-94.01,39.79-52.73,131.19-101.09,180.66-106.46,13.27-1.46,24.82-3.86,35.23-7.29-1.82-16.01-5.56-31.88-11.1-47.21-64.01,44.97-139.78,75.57-194.03,93.18-50.58,16.4-114.15,78.4-153.78,128.44Z"/>
  <path class="cls-34" d="M584.31,767.75c-103.23,27.94-157.02,60.2-204.31,138.69-8.71,14.45-16.76,28.45-24.23,41.7,6.91,15.41,15.93,30.05,27.17,43.48,29.39-49.28,66.5-100.71,111.04-118.53,44.17-17.69,158.42-62.43,239.31-111.16-8.16-16.76-18.76-32.65-31.73-47.19-34.28,22.29-72.63,40.92-117.25,53.01Z"/>
</svg>