<?xml version="1.0" encoding="UTF-8" standalone="no"?>
<!DOCTYPE svg PUBLIC "-//W3C//DTD SVG 1.1//EN" "http://www.w3.org/Graphics/SVG/1.1/DTD/svg11.dtd">
<svg width="100%" height="100%" viewBox="0 0 3171 3209" version="1.1" xmlns="http://www.w3.org/2000/svg" xmlns:xlink="http://www.w3.org/1999/xlink" xml:space="preserve" xmlns:serif="http://www.serif.com/" style="fill-rule:evenodd;clip-rule:evenodd;stroke-linejoin:round;stroke-miterlimit:2;">
    <g transform="matrix(4.16667,0,0,4.16667,0,0)">
        <g transform="matrix(5.2266,0,0,5.2266,0.000350381,-0.771625)">
            <path d="M117.63,50.283C119.233,50.635 120.802,51.275 122.216,52.266C124.206,50.998 127.955,48.364 129.434,45.618C125.578,43.455 121.325,42.264 117.023,41.989C118.262,44.536 118.886,47.515 117.63,50.283Z" style="fill:url(#_Linear1);fill-rule:nonzero;"/>
        </g>
        <g transform="matrix(5.2266,0,0,5.2266,0.000350381,-0.771625)">
            <path d="M85.732,67.779C89.162,67.257 91.533,64.877 92.726,63.376C92.471,61.32 92.439,59.328 92.602,57.399C91.142,57.592 89.035,57.814 86.812,57.906L75.767,68.378L80.135,72.982C80.163,72.918 80.184,72.845 80.215,72.783C81.56,69.887 83.516,68.109 85.732,67.779Z" style="fill:url(#_Linear2);fill-rule:nonzero;"/>
        </g>
        <g transform="matrix(5.2266,0,0,5.2266,0.000350381,-0.771625)">
            <path d="M127.713,61.961C130.257,63.457 136.218,66.522 139.791,64.897C140.803,64.437 141.514,63.582 141.995,62.396C141.75,60.341 141.226,58.463 140.58,56.802C139.877,55.56 139.106,54.347 138.21,53.193C135.318,56.403 129.634,57.007 126.23,57.027C126.952,58.452 127.462,60.091 127.713,61.961Z" style="fill:url(#_Linear3);fill-rule:nonzero;"/>
        </g>
        <g transform="matrix(5.2266,0,0,5.2266,0.000350381,-0.771625)">
            <path d="M100.964,86.598C101.524,83.028 104.734,80.229 107.397,78.486C104.961,78.2 102.584,77.525 100.477,76.34C97.901,76.613 93.228,77.525 90.909,80.781C90.396,81.501 90.045,82.315 89.835,83.206L96.549,90.289C96.869,90.623 97.212,90.924 97.545,91.242C99.115,91.598 100.732,91.919 102.422,92.152C101.211,90.331 100.67,88.478 100.964,86.598Z" style="fill:url(#_Linear4);fill-rule:nonzero;"/>
        </g>
        <g transform="matrix(5.2266,0,0,5.2266,0.000350381,-0.771625)">
            <path d="M98.374,74.901C95.934,72.93 94.059,70.159 93.241,66.417C93.18,66.136 93.153,65.861 93.1,65.584C91.57,67.181 89.21,69 85.99,69.49C83.805,69.818 82.419,72.153 81.787,73.511C81.659,73.784 81.57,74.088 81.457,74.379L88.464,81.762C88.726,81.059 89.06,80.388 89.5,79.773C91.684,76.709 95.47,75.447 98.374,74.901Z" style="fill:url(#_Linear5);fill-rule:nonzero;"/>
        </g>
        <g transform="matrix(5.2266,0,0,5.2266,0.000350381,-0.771625)">
            <path d="M108.969,49.207C109.364,49.835 109.606,50.498 109.752,51.184C111.542,50.283 113.614,49.86 115.824,50.005C117.373,47.231 116.383,44.21 115.064,41.931C110.838,41.953 106.618,42.865 102.727,44.729C104.816,45.529 107.554,46.938 108.969,49.207Z" style="fill:url(#_Linear6);fill-rule:nonzero;"/>
        </g>
        <g transform="matrix(5.2266,0,0,5.2266,0.000350381,-0.771625)">
            <path d="M93.979,51.104L88.769,56.049C90.376,55.923 91.832,55.748 92.834,55.613C93.073,54.049 93.463,52.549 93.979,51.104Z" style="fill:url(#_Linear7);fill-rule:nonzero;"/>
        </g>
        <g transform="matrix(5.2266,0,0,5.2266,0.000350381,-0.771625)">
            <path d="M123.596,53.436C124.174,53.985 124.707,54.598 125.192,55.282C128.095,55.35 134.442,55.069 137.075,51.876C136.814,51.577 136.576,51.263 136.3,50.972C134.646,49.233 132.814,47.769 130.878,46.527C129.255,49.425 125.762,52.025 123.596,53.436Z" style="fill:url(#_Linear8);fill-rule:nonzero;"/>
        </g>
        <g transform="matrix(5.2266,0,0,5.2266,0.000350381,-0.771625)">
            <path d="M121.171,94.444C120.291,95.558 118.995,97.28 117.671,99.292C121.691,99.243 125.667,98.329 129.3,96.513C130.015,93.803 131.039,91.146 132.061,88.852C128.599,91.506 124.918,93.297 121.171,94.444Z" style="fill:url(#_Linear9);fill-rule:nonzero;"/>
        </g>
        <g transform="matrix(5.2266,0,0,5.2266,0.000350381,-0.771625)">
            <path d="M116.506,91.949C120.393,91.205 124.251,89.788 127.893,87.454C126.316,86.819 124.988,85.864 123.994,84.504C121.899,81.637 121.61,77.83 121.728,75.116C120.386,76.026 118.922,76.768 117.36,77.34C115.772,81.363 113.784,88.713 116.506,91.949Z" style="fill:url(#_Linear10);fill-rule:nonzero;"/>
        </g>
        <g transform="matrix(5.2266,0,0,5.2266,0.000350381,-0.771625)">
            <path d="M103.94,58.923C103.949,58.901 103.949,58.891 103.952,58.868C104.542,56.052 106.045,53.762 108.105,52.205C108.067,51.481 107.91,50.784 107.501,50.126C106.091,47.86 102.876,46.563 101.019,45.967C100.96,46.031 100.892,46.084 100.833,46.144C98.428,48.849 95.967,53.206 95.962,59.584C98.233,57.971 101.759,58.405 103.94,58.923Z" style="fill:url(#_Linear11);fill-rule:nonzero;"/>
        </g>
        <g transform="matrix(5.2266,0,0,5.2266,0.000350381,-0.771625)">
            <path d="M103.931,95.902C103.96,95.892 103.995,95.875 104.029,95.862C103.945,95.855 103.869,95.837 103.786,95.829C103.833,95.855 103.88,95.879 103.931,95.902Z" style="fill:url(#_Linear12);fill-rule:nonzero;"/>
        </g>
        <g transform="matrix(5.2266,0,0,5.2266,0.000350381,-0.771625)">
            <path d="M114.522,92.282C112.189,88.36 113.937,81.747 115.255,78.014C114.319,78.252 113.367,78.43 112.417,78.539C111.817,78.602 111.201,78.599 110.592,78.619C108.283,79.831 103.301,82.87 102.672,86.869C102.388,88.706 103.136,90.567 104.801,92.436C107.948,92.726 111.224,92.726 114.522,92.282Z" style="fill:url(#_Linear13);fill-rule:nonzero;"/>
        </g>
        <g transform="matrix(5.2266,0,0,5.2266,0.000350381,-0.771625)">
            <path d="M138.672,76.316C139.051,75.717 139.316,75.116 139.627,74.524C137.95,75.321 136.29,75.767 134.657,75.767C134.051,75.767 133.443,75.707 132.842,75.6C129.517,74.982 127.12,72.784 125.75,71.166C125.125,72.075 124.409,72.925 123.576,73.685C123.323,76.012 123.19,80.472 125.395,83.491C126.409,84.874 127.847,85.783 129.654,86.234C132.929,83.802 135.993,80.594 138.672,76.316Z" style="fill:url(#_Linear14);fill-rule:nonzero;"/>
        </g>
        <g transform="matrix(5.2266,0,0,5.2266,0.000350381,-0.771625)">
            <path d="M140.505,66.476C139.575,66.899 138.537,67.075 137.457,67.075C134.086,67.075 130.3,65.366 127.907,64.067C127.908,64.13 127.923,64.183 127.923,64.243C127.95,66.206 127.495,67.983 126.719,69.586C127.822,71.004 130.035,73.318 133.174,73.896C135.604,74.332 138.178,73.596 140.833,71.814C141.665,69.553 142.06,67.383 142.115,65.339C141.645,65.799 141.122,66.199 140.505,66.476Z" style="fill:url(#_Linear15);fill-rule:nonzero;"/>
        </g>
        <g transform="matrix(5.2266,0,0,5.2266,0.000350381,-0.771625)">
            <path d="M108.963,68.289C105.34,67.359 103.454,64.553 103.705,60.643C101.506,60.104 98.21,59.711 96.638,61.175C96.389,61.406 96.211,61.704 96.055,62.022C96.164,63.185 96.343,64.397 96.625,65.68C98.063,72.234 103.4,74.776 108.573,75.141C107.749,73.049 108.409,70.191 109.055,68.308C109.025,68.301 108.991,68.301 108.963,68.289Z" style="fill:url(#_Linear16);fill-rule:nonzero;"/>
        </g>
        <g transform="matrix(5.2266,0,0,5.2266,0.000350381,-0.771625)">
            <path d="M110.638,75.169C111.104,75.145 111.574,75.145 112.022,75.091C116.982,74.524 121.913,71.887 123.705,67.746C122.281,67.392 120.75,66.255 119.63,65.258C117.871,67.534 114.103,68.774 110.8,68.565C110.104,70.541 109.382,73.515 110.363,74.962C110.428,75.056 110.558,75.088 110.638,75.169Z" style="fill:url(#_Linear17);fill-rule:nonzero;"/>
        </g>
        <g transform="matrix(5.2266,0,0,5.2266,0.000350381,-0.771625)">
            <path d="M109.274,96.156C108.959,96.156 108.655,96.103 108.339,96.1C107.63,96.354 106.857,96.642 106.059,96.946C109.131,98.279 112.372,99.053 115.626,99.256C116.599,97.727 117.574,96.321 118.425,95.174C115.363,95.859 112.283,96.156 109.274,96.156Z" style="fill:url(#_Linear18);fill-rule:nonzero;"/>
        </g>
        <g transform="matrix(5.2266,0,0,5.2266,0.000350381,-0.771625)">
            <path d="M135.381,85.95C134.177,88.293 132.576,91.734 131.434,95.33C132.89,94.418 134.281,93.367 135.568,92.14C137.695,90.124 139.436,87.851 140.802,85.408C140.496,83.524 140.35,81.689 140.296,80.113C138.748,82.331 137.102,84.268 135.381,85.95Z" style="fill:url(#_Linear19);fill-rule:nonzero;"/>
        </g>
        <g transform="matrix(5.2266,0,0,5.2266,0.000350381,-0.771625)">
            <path d="M142.018,77.385C141.995,78.684 142.018,80.513 142.201,82.533C143.595,79.205 144.339,75.651 144.428,72.072C143.864,73.804 143.08,75.575 142.018,77.385Z" style="fill:url(#_Linear20);fill-rule:nonzero;"/>
        </g>
        <g transform="matrix(5.2266,0,0,5.2266,0.000350381,-0.771625)">
            <path d="M117.14,62.745C117.463,61.701 117.118,61.491 116.931,61.376C116.08,60.856 114.49,61.152 114.133,61.505C113.455,62.18 112.355,62.18 111.683,61.496C111.009,60.818 111.011,59.722 111.69,59.043C113.293,57.459 116.647,57.153 118.728,58.405C120.483,59.475 121.123,61.439 120.469,63.674C121.837,64.929 123.34,65.964 124.243,66.123C124.366,65.53 124.465,64.929 124.458,64.285C124.379,57.387 120.067,53.874 115.83,53.464C112.304,53.107 108.328,54.879 107.342,59.579C106.713,62.591 107.525,64.339 109.83,64.939C112.878,65.72 116.725,64.099 117.14,62.745Z" style="fill:url(#_Linear21);fill-rule:nonzero;"/>
        </g>
        <g transform="matrix(5.2266,0,0,5.2266,0.000350381,-0.771625)">
            <path d="M78.378,1.845C76.284,1.229 74.132,0.864 71.959,0.728C71.175,3.72 70.577,7.534 70.131,11.89C72.593,9.668 76.053,6.101 78.378,1.845Z" style="fill:url(#_Linear22);fill-rule:nonzero;"/>
        </g>
        <g transform="matrix(5.2266,0,0,5.2266,0.000350381,-0.771625)">
            <path d="M65.08,27.526C59.929,20.78 56.032,10.264 54.352,5.237C52.751,6.254 51.221,7.435 49.794,8.788C48.622,9.897 47.593,11.1 46.647,12.347C48.981,17.204 55.097,28.788 64.909,39.533C64.909,35.594 64.96,31.537 65.08,27.526Z" style="fill:url(#_Linear23);fill-rule:nonzero;"/>
        </g>
        <g transform="matrix(5.2266,0,0,5.2266,0.000350381,-0.771625)">
            <path d="M67.749,0.745C63.762,1.072 59.825,2.236 56.187,4.192C57.602,8.44 60.891,17.524 65.2,24.128C65.567,15.231 66.333,6.833 67.749,0.745Z" style="fill:url(#_Linear24);fill-rule:nonzero;"/>
        </g>
        <g transform="matrix(5.2266,0,0,5.2266,0.000350381,-0.771625)">
            <path d="M69.861,14.861C69.423,20.145 69.177,26.039 69.071,32.1C74.347,27.992 86.007,18.332 90.987,9.55C90.977,9.543 90.97,9.53 90.961,9.521C87.91,6.307 84.266,3.992 80.357,2.523C77.292,8.324 72.324,12.842 69.861,14.861Z" style="fill:url(#_Linear25);fill-rule:nonzero;"/>
        </g>
        <g transform="matrix(5.2266,0,0,5.2266,0.000350381,-0.771625)">
            <path d="M97.681,22.909C88.904,34.787 73.953,45.512 69.092,48.839C69.161,52.651 69.265,56.35 69.395,59.823C75.314,55.087 89.999,42.996 97.454,33.829C98.255,30.213 98.329,26.498 97.681,22.909Z" style="fill:url(#_Linear26);fill-rule:nonzero;"/>
        </g>
        <g transform="matrix(5.2266,0,0,5.2266,0.000350381,-0.771625)">
            <path d="M69.034,34.74C68.992,38.608 69.003,42.516 69.054,46.338C74.953,42.192 89.304,31.466 97.052,20.23C96.118,16.999 94.576,13.932 92.398,11.206C86.5,21.075 73.411,31.436 69.034,34.74Z" style="fill:url(#_Linear27);fill-rule:nonzero;"/>
        </g>
        <g transform="matrix(5.2266,0,0,5.2266,0.000350381,-0.771625)">
            <path d="M65.049,51.701C64.985,48.816 64.937,45.735 64.917,42.547C54.728,31.889 48.15,20.035 45.299,14.283C42.405,18.82 40.86,23.981 40.732,29.185C46.888,35.99 57.493,47.097 65.049,51.701Z" style="fill:url(#_Linear28);fill-rule:nonzero;"/>
        </g>
        <g transform="matrix(5.2266,0,0,5.2266,0.000350381,-0.771625)">
            <path d="M40.846,32.393C41.384,38.667 43.94,44.802 48.594,49.706L65.614,67.65C65.467,64.668 65.262,59.883 65.109,54.119C57.782,50.1 47.509,39.652 40.846,32.393Z" style="fill:url(#_Linear29);fill-rule:nonzero;"/>
        </g>
        <g transform="matrix(5.2266,0,0,5.2266,0.000350381,-0.771625)">
            <path d="M69.495,62.385C69.562,63.968 69.632,65.492 69.703,66.941L89.105,48.539C92.106,45.694 94.343,42.362 95.852,38.806C87.125,48.252 73.841,58.957 69.495,62.385Z" style="fill:url(#_Linear30);fill-rule:nonzero;"/>
        </g>
        <g transform="matrix(5.2266,0,0,5.2266,0.000350381,-0.771625)">
            <path d="M27.321,62.153C29.086,63.367 33.212,66.235 33.536,69.665C33.802,72.597 32.352,75.357 29.108,78.107C25.268,77.579 21.279,78.213 17.933,79.912C17.063,78.405 15.824,77.137 15.12,76.412C12.844,74.096 10.588,72.264 8.415,70.958C8.503,70.915 8.592,70.856 8.678,70.806C11.01,69.359 17.19,65.518 18.052,59.75C18.08,59.572 18.095,59.393 18.104,59.222C21.807,59.479 24.825,60.444 27.321,62.153ZM36.936,68.623C36.592,67.228 36.042,65.911 35.28,64.722C36.274,64.265 37.48,64.095 39.137,64.209C39.137,64.209 39.554,64.301 39.695,64.256C40.891,64.393 42.09,64.622 43.138,64.821L43.524,64.9C45.719,65.33 48.455,65.878 50.14,67.878C51.603,69.616 51.204,72.921 50.157,75.423C48.748,78.769 46.454,80.867 44.375,82.565C42.843,82.565 41.321,82.688 39.955,82.919C39.652,82.972 39.364,83.068 39.146,83.17C37.196,81.045 34.631,79.498 31.667,78.656C34.464,76.365 37.939,72.623 36.936,68.623ZM30.404,100.248L30.322,100.321C27.866,102.296 25.729,103.468 24.689,103.98C24.937,102.848 24.796,101.779 24.278,100.771C22.544,97.41 16.791,95.537 11.539,94.508L12.047,94.081C14.789,91.831 18.534,88.743 18.95,83.643C19.008,82.949 18.91,82.232 18.642,81.465C18.88,81.296 19.145,81.144 19.445,81.009C21.466,80.057 24.616,79.789 27.726,80.278C27.726,80.278 28.293,80.488 28.522,80.434C32.628,81.296 35.642,83.297 36.803,85.957C39.349,91.803 33.885,97.422 30.404,100.248Z" style="fill:url(#_Linear31);fill-rule:nonzero;"/>
        </g>
        <g transform="matrix(5.2266,0,0,5.2266,0.000350381,-0.771625)">
            <path d="M26.314,104.79C30.837,105.219 35.432,104.587 39.71,102.872C36.961,102.599 34.227,102.151 31.605,101.662C30.005,102.86 28.271,103.886 26.314,104.79Z" style="fill:url(#_Linear32);fill-rule:nonzero;"/>
        </g>
        <g transform="matrix(5.2266,0,0,5.2266,0.000350381,-0.771625)">
            <path d="M21.007,101.606C19.212,98.721 13.399,97.196 8.559,96.407C12.259,100.132 16.733,102.63 21.479,103.909C21.596,103.086 21.449,102.316 21.007,101.606Z" style="fill:url(#_Linear33);fill-rule:nonzero;"/>
        </g>
        <g transform="matrix(5.2266,0,0,5.2266,0.000350381,-0.771625)">
            <path d="M42.797,62.375C44.409,62.497 46.076,62.781 47.763,63.234C49.573,63.717 51.776,64.476 53.173,66.192C53.876,65.761 54.526,65.331 55.163,64.91L47.712,57.057C46.212,59.039 44.419,60.877 42.797,62.375Z" style="fill:url(#_Linear34);fill-rule:nonzero;"/>
        </g>
        <g transform="matrix(5.2266,0,0,5.2266,0.000350381,-0.771625)">
            <path d="M15.302,85.362C15.95,82.976 14.611,81.28 13.314,79.631C10.095,75.516 5.144,71.643 0.397,70.945C-0.902,78.748 0.977,87.047 6.139,93.694C6.967,93.786 7.894,93.899 8.889,94.044C11.656,91.734 14.175,89.554 15.302,85.362Z" style="fill:url(#_Linear35);fill-rule:nonzero;"/>
        </g>
        <g transform="matrix(5.2266,0,0,5.2266,0.000350381,-0.771625)">
            <path d="M28.522,80.434C28.293,80.488 27.726,80.278 27.726,80.278C24.616,79.789 21.466,80.057 19.445,81.009C19.145,81.144 18.88,81.296 18.642,81.465C18.91,82.232 19.008,82.949 18.95,83.643C18.534,88.743 14.789,91.831 12.047,94.081L11.539,94.508C16.791,95.537 22.544,97.41 24.278,100.771C24.796,101.779 24.937,102.848 24.689,103.98C25.729,103.468 27.866,102.296 30.322,100.321L30.404,100.248C33.885,97.422 39.349,91.803 36.803,85.957C35.642,83.297 32.628,81.296 28.522,80.434Z" style="fill:url(#_Linear36);fill-rule:nonzero;"/>
        </g>
        <g transform="matrix(5.2266,0,0,5.2266,0.000350381,-0.771625)">
            <path d="M43.634,84.682L43.587,84.69C42.493,84.641 41.35,84.663 40.223,84.753C43.014,90.2 36.913,96.898 34.081,99.594C37.062,100.137 40.397,100.628 43.853,100.822C45.565,99.785 47.2,98.559 48.711,97.129L55.285,90.888C52.62,86.151 47.504,84.889 43.634,84.682Z" style="fill:url(#_Linear37);fill-rule:nonzero;"/>
        </g>
        <g transform="matrix(5.2266,0,0,5.2266,0.000350381,-0.771625)">
            <path d="M15.533,52.393C16.232,53.335 17.12,54.733 17.648,56.297C17.836,56.219 18.021,56.148 18.195,56.081C18.708,55.92 19.213,55.718 19.7,55.49C22.589,54.13 25.278,51.527 26.847,47.938C22.577,47.95 18.35,48.95 14.526,50.966C14.875,51.477 15.232,51.994 15.533,52.393Z" style="fill:url(#_Linear38);fill-rule:nonzero;"/>
        </g>
        <g transform="matrix(5.2266,0,0,5.2266,0.000350381,-0.771625)">
            <path d="M6.68,70.013C9.421,68.231 13.05,65.379 14.51,60.926C15.185,58.815 13.948,56.568 12.73,54.626C12.335,53.99 11.907,53.403 11.444,52.875C10.525,53.537 9.634,54.245 8.791,55.041C4.781,58.849 2.166,63.568 0.891,68.59C2.718,68.579 4.651,69.048 6.68,70.013Z" style="fill:url(#_Linear39);fill-rule:nonzero;"/>
        </g>
        <g transform="matrix(5.2266,0,0,5.2266,0.000350381,-0.771625)">
            <path d="M18.052,59.75C17.19,65.518 11.01,69.359 8.678,70.806C8.592,70.856 8.503,70.915 8.415,70.958C10.588,72.264 12.844,74.096 15.12,76.412C15.824,77.137 17.063,78.405 17.933,79.912C21.279,78.213 25.268,77.579 29.108,78.107C32.352,75.357 33.802,72.597 33.536,69.665C33.212,66.235 29.086,63.367 27.321,62.153C24.825,60.444 21.807,59.479 18.104,59.222C18.095,59.393 18.08,59.572 18.052,59.75Z" style="fill:url(#_Linear40);fill-rule:nonzero;"/>
        </g>
        <g transform="matrix(5.2266,0,0,5.2266,0.000350381,-0.771625)">
            <path d="M54.529,67.405C54.371,67.507 54.206,67.582 54.042,67.646C54.404,68.518 54.546,69.459 54.469,70.515C54.063,76.676 50.495,80.215 47.37,82.764C50.443,83.18 54.132,84.377 56.901,87.388C56.932,87.388 56.966,87.378 57,87.378C57.803,87.323 58.569,87.206 59.317,87.064L68.193,78.644L56.443,66.258C56.115,66.456 55.792,66.651 55.482,66.833L54.529,67.405Z" style="fill:url(#_Linear41);fill-rule:nonzero;"/>
        </g>
        <g transform="matrix(5.2266,0,0,5.2266,0.000350381,-0.771625)">
            <path d="M31.667,78.656C34.631,79.498 37.196,81.045 39.146,83.17C39.364,83.068 39.652,82.972 39.955,82.919C41.321,82.688 42.843,82.565 44.375,82.565C46.454,80.867 48.748,78.769 50.157,75.423C51.204,72.921 51.603,69.616 50.14,67.878C48.455,65.878 45.719,65.33 43.524,64.9L43.138,64.821C42.09,64.622 40.891,64.393 39.695,64.256C39.554,64.301 39.137,64.209 39.137,64.209C37.48,64.095 36.274,64.265 35.28,64.722C36.042,65.911 36.592,67.228 36.936,68.623C37.939,72.623 34.464,76.365 31.667,78.656Z" style="fill:url(#_Linear42);fill-rule:nonzero;"/>
        </g>
        <g transform="matrix(5.2266,0,0,5.2266,0.000350381,-0.771625)">
            <path d="M20.452,56.664C20.219,56.776 19.99,56.875 19.756,56.974C24.825,57.289 30.947,59.137 34.439,63.506C36.073,62.867 37.825,62.471 39.667,62.34C42.467,59.808 44.489,57.423 45.8,55.211C41.213,51.108 35.636,48.735 29.952,48.103C27.771,52.34 23.95,55.018 20.452,56.664Z" style="fill:url(#_Linear43);fill-rule:nonzero;"/>
        </g>
        <g transform="matrix(5.2266,0,0,5.2266,0.000350381,-0.771625)">
            <path d="M80.599,102.689C85,100.552 88.813,97.655 92.302,94.614L88.981,91.109C83.749,94.451 78.18,96.817 73.866,98.435C66.425,101.228 55.22,103.514 46.308,117.463C46.069,121.066 46.54,124.686 47.734,128.084C48.748,125.311 49.664,122.451 50.673,119.853C53.753,111.931 72.656,106.554 80.599,102.689Z" style="fill:url(#_Linear44);fill-rule:nonzero;"/>
        </g>
        <g transform="matrix(5.2266,0,0,5.2266,0.000350381,-0.771625)">
            <path d="M76.003,145.935C82.471,145.454 88.852,142.814 93.948,137.975C96.522,135.535 98.539,132.728 100.005,129.715C96.586,131.896 92.429,133.202 89.109,133.202C85.038,133.202 76.01,142.728 76.003,145.935Z" style="fill:url(#_Linear45);fill-rule:nonzero;"/>
        </g>
        <g transform="matrix(5.2266,0,0,5.2266,0.000350381,-0.771625)">
            <path d="M80.089,81.739L76.774,78.243L59.137,94.976C60.173,94.378 61.206,93.859 62.231,93.416C66.517,91.565 73.769,86.601 80.089,81.739Z" style="fill:url(#_Linear46);fill-rule:nonzero;"/>
        </g>
        <g transform="matrix(5.2266,0,0,5.2266,0.000350381,-0.771625)">
            <path d="M61.57,101.315C71.985,98.034 80.466,93.603 86.892,88.908L83.231,85.051C76.151,91.555 69.461,94.37 62.702,95.941C59.076,96.787 55.562,98.958 52.383,101.783C49.606,105.28 47.768,109.277 46.875,113.41C51.17,107.415 56.136,103.022 61.57,101.315Z" style="fill:url(#_Linear47);fill-rule:nonzero;"/>
        </g>
        <g transform="matrix(5.2266,0,0,5.2266,0.000350381,-0.771625)">
            <path d="M74.803,132.836C72.642,135.223 66.412,140.043 61.748,143.322C65.314,144.997 69.171,145.892 73.068,146C76.595,141.108 81.96,131.437 89.988,130.269C94.218,129.656 98.158,127.624 101.61,125.656C102.671,122.227 103.083,118.635 102.824,115.08C92.651,118.178 82.6,124.252 74.803,132.836Z" style="fill:url(#_Linear48);fill-rule:nonzero;"/>
        </g>
        <g transform="matrix(5.2266,0,0,5.2266,0.000350381,-0.771625)">
            <path d="M53.751,137.671C55.541,139.482 57.522,140.999 59.634,142.219C65.815,137.215 70.439,133.132 73.264,129.393C78.693,122.199 91.163,115.6 97.913,114.868C99.724,114.669 101.3,114.341 102.72,113.874C102.471,111.689 101.961,109.525 101.205,107.433C92.471,113.569 82.133,117.744 74.732,120.147C67.831,122.385 59.158,130.844 53.751,137.671Z" style="fill:url(#_Linear49);fill-rule:nonzero;"/>
        </g>
        <g transform="matrix(5.2266,0,0,5.2266,0.000350381,-0.771625)">
            <path d="M79.722,105.479C65.637,109.291 58.299,113.692 51.846,124.402C50.657,126.373 49.559,128.284 48.54,130.092C49.483,132.195 50.714,134.192 52.247,136.025C56.257,129.301 61.32,122.284 67.397,119.853C73.424,117.44 89.011,111.335 100.048,104.686C98.934,102.399 97.489,100.231 95.719,98.247C91.042,101.288 85.81,103.83 79.722,105.479Z" style="fill:url(#_Linear50);fill-rule:nonzero;"/>
        </g>
    </g>
    <defs>
        <linearGradient id="_Linear1" x1="0" y1="0" x2="1" y2="0" gradientUnits="userSpaceOnUse" gradientTransform="matrix(144.428,0,0,145.272,-0.00033057,73.364)"><stop offset="0" style="stop-color:white;stop-opacity:1"/><stop offset="1" style="stop-color:white;stop-opacity:0"/></linearGradient>
        <linearGradient id="_Linear2" x1="0" y1="0" x2="1" y2="0" gradientUnits="userSpaceOnUse" gradientTransform="matrix(144.428,0,0,145.272,-0.00033057,73.364)"><stop offset="0" style="stop-color:white;stop-opacity:1"/><stop offset="1" style="stop-color:white;stop-opacity:0"/></linearGradient>
        <linearGradient id="_Linear3" x1="0" y1="0" x2="1" y2="0" gradientUnits="userSpaceOnUse" gradientTransform="matrix(144.428,0,0,145.272,-0.00033057,73.364)"><stop offset="0" style="stop-color:white;stop-opacity:1"/><stop offset="1" style="stop-color:white;stop-opacity:0"/></linearGradient>
        <linearGradient id="_Linear4" x1="0" y1="0" x2="1" y2="0" gradientUnits="userSpaceOnUse" gradientTransform="matrix(144.428,0,0,145.272,-0.00033057,73.364)"><stop offset="0" style="stop-color:white;stop-opacity:1"/><stop offset="1" style="stop-color:white;stop-opacity:0"/></linearGradient>
        <linearGradient id="_Linear5" x1="0" y1="0" x2="1" y2="0" gradientUnits="userSpaceOnUse" gradientTransform="matrix(144.428,0,0,145.272,-0.00033057,73.364)"><stop offset="0" style="stop-color:white;stop-opacity:1"/><stop offset="1" style="stop-color:white;stop-opacity:0"/></linearGradient>
        <linearGradient id="_Linear6" x1="0" y1="0" x2="1" y2="0" gradientUnits="userSpaceOnUse" gradientTransform="matrix(144.428,0,0,145.272,-0.00033057,73.364)"><stop offset="0" style="stop-color:white;stop-opacity:1"/><stop offset="1" style="stop-color:white;stop-opacity:0"/></linearGradient>
        <linearGradient id="_Linear7" x1="0" y1="0" x2="1" y2="0" gradientUnits="userSpaceOnUse" gradientTransform="matrix(144.428,0,0,145.272,-0.00033057,73.364)"><stop offset="0" style="stop-color:white;stop-opacity:1"/><stop offset="1" style="stop-color:white;stop-opacity:0"/></linearGradient>
        <linearGradient id="_Linear8" x1="0" y1="0" x2="1" y2="0" gradientUnits="userSpaceOnUse" gradientTransform="matrix(144.428,0,0,145.272,-0.00033057,73.364)"><stop offset="0" style="stop-color:white;stop-opacity:1"/><stop offset="1" style="stop-color:white;stop-opacity:0"/></linearGradient>
        <linearGradient id="_Linear9" x1="0" y1="0" x2="1" y2="0" gradientUnits="userSpaceOnUse" gradientTransform="matrix(144.428,0,0,145.272,-0.00033057,73.364)"><stop offset="0" style="stop-color:white;stop-opacity:1"/><stop offset="1" style="stop-color:white;stop-opacity:0"/></linearGradient>
        <linearGradient id="_Linear10" x1="0" y1="0" x2="1" y2="0" gradientUnits="userSpaceOnUse" gradientTransform="matrix(144.428,0,0,145.272,-0.00033057,73.364)"><stop offset="0" style="stop-color:white;stop-opacity:1"/><stop offset="1" style="stop-color:white;stop-opacity:0"/></linearGradient>
        <linearGradient id="_Linear11" x1="0" y1="0" x2="1" y2="0" gradientUnits="userSpaceOnUse" gradientTransform="matrix(144.428,0,0,145.272,-0.00033057,73.364)"><stop offset="0" style="stop-color:white;stop-opacity:1"/><stop offset="1" style="stop-color:white;stop-opacity:0"/></linearGradient>
        <linearGradient id="_Linear12" x1="0" y1="0" x2="1" y2="0" gradientUnits="userSpaceOnUse" gradientTransform="matrix(144.428,0,0,145.272,-0.00033057,73.364)"><stop offset="0" style="stop-color:white;stop-opacity:1"/><stop offset="1" style="stop-color:white;stop-opacity:0"/></linearGradient>
        <linearGradient id="_Linear13" x1="0" y1="0" x2="1" y2="0" gradientUnits="userSpaceOnUse" gradientTransform="matrix(144.428,0,0,145.272,-0.00033057,73.364)"><stop offset="0" style="stop-color:white;stop-opacity:1"/><stop offset="1" style="stop-color:white;stop-opacity:0"/></linearGradient>
        <linearGradient id="_Linear14" x1="0" y1="0" x2="1" y2="0" gradientUnits="userSpaceOnUse" gradientTransform="matrix(144.428,0,0,145.272,-0.00033057,73.364)"><stop offset="0" style="stop-color:white;stop-opacity:1"/><stop offset="1" style="stop-color:white;stop-opacity:0"/></linearGradient>
        <linearGradient id="_Linear15" x1="0" y1="0" x2="1" y2="0" gradientUnits="userSpaceOnUse" gradientTransform="matrix(144.428,0,0,145.272,-0.00033057,73.364)"><stop offset="0" style="stop-color:white;stop-opacity:1"/><stop offset="1" style="stop-color:white;stop-opacity:0"/></linearGradient>
        <linearGradient id="_Linear16" x1="0" y1="0" x2="1" y2="0" gradientUnits="userSpaceOnUse" gradientTransform="matrix(144.428,0,0,145.272,-0.00033057,73.364)"><stop offset="0" style="stop-color:white;stop-opacity:1"/><stop offset="1" style="stop-color:white;stop-opacity:0"/></linearGradient>
        <linearGradient id="_Linear17" x1="0" y1="0" x2="1" y2="0" gradientUnits="userSpaceOnUse" gradientTransform="matrix(144.428,0,0,145.272,-0.00033057,73.364)"><stop offset="0" style="stop-color:white;stop-opacity:1"/><stop offset="1" style="stop-color:white;stop-opacity:0"/></linearGradient>
        <linearGradient id="_Linear18" x1="0" y1="0" x2="1" y2="0" gradientUnits="userSpaceOnUse" gradientTransform="matrix(144.428,0,0,145.272,-0.00033057,73.364)"><stop offset="0" style="stop-color:white;stop-opacity:1"/><stop offset="1" style="stop-color:white;stop-opacity:0"/></linearGradient>
        <linearGradient id="_Linear19" x1="0" y1="0" x2="1" y2="0" gradientUnits="userSpaceOnUse" gradientTransform="matrix(144.428,0,0,145.272,-0.00033057,73.364)"><stop offset="0" style="stop-color:white;stop-opacity:1"/><stop offset="1" style="stop-color:white;stop-opacity:0"/></linearGradient>
        <linearGradient id="_Linear20" x1="0" y1="0" x2="1" y2="0" gradientUnits="userSpaceOnUse" gradientTransform="matrix(144.428,0,0,145.272,-0.00033057,73.364)"><stop offset="0" style="stop-color:white;stop-opacity:1"/><stop offset="1" style="stop-color:white;stop-opacity:0"/></linearGradient>
        <linearGradient id="_Linear21" x1="0" y1="0" x2="1" y2="0" gradientUnits="userSpaceOnUse" gradientTransform="matrix(144.428,0,0,145.272,-0.00033057,73.364)"><stop offset="0" style="stop-color:white;stop-opacity:1"/><stop offset="1" style="stop-color:white;stop-opacity:0"/></linearGradient>
        <linearGradient id="_Linear22" x1="0" y1="0" x2="1" y2="0" gradientUnits="userSpaceOnUse" gradientTransform="matrix(144.428,0,0,145.272,-0.00033057,73.364)"><stop offset="0" style="stop-color:white;stop-opacity:1"/><stop offset="1" style="stop-color:white;stop-opacity:0"/></linearGradient>
        <linearGradient id="_Linear23" x1="0" y1="0" x2="1" y2="0" gradientUnits="userSpaceOnUse" gradientTransform="matrix(144.428,0,0,145.272,-0.00033057,73.364)"><stop offset="0" style="stop-color:white;stop-opacity:1"/><stop offset="1" style="stop-color:white;stop-opacity:0"/></linearGradient>
        <linearGradient id="_Linear24" x1="0" y1="0" x2="1" y2="0" gradientUnits="userSpaceOnUse" gradientTransform="matrix(144.428,0,0,145.272,-0.00033057,73.364)"><stop offset="0" style="stop-color:white;stop-opacity:1"/><stop offset="1" style="stop-color:white;stop-opacity:0"/></linearGradient>
        <linearGradient id="_Linear25" x1="0" y1="0" x2="1" y2="0" gradientUnits="userSpaceOnUse" gradientTransform="matrix(144.428,0,0,145.272,-0.00033057,73.364)"><stop offset="0" style="stop-color:white;stop-opacity:1"/><stop offset="1" style="stop-color:white;stop-opacity:0"/></linearGradient>
        <linearGradient id="_Linear26" x1="0" y1="0" x2="1" y2="0" gradientUnits="userSpaceOnUse" gradientTransform="matrix(144.428,0,0,145.272,-0.00033057,73.364)"><stop offset="0" style="stop-color:white;stop-opacity:1"/><stop offset="1" style="stop-color:white;stop-opacity:0"/></linearGradient>
        <linearGradient id="_Linear27" x1="0" y1="0" x2="1" y2="0" gradientUnits="userSpaceOnUse" gradientTransform="matrix(144.428,0,0,145.272,-0.00033057,73.364)"><stop offset="0" style="stop-color:white;stop-opacity:1"/><stop offset="1" style="stop-color:white;stop-opacity:0"/></linearGradient>
        <linearGradient id="_Linear28" x1="0" y1="0" x2="1" y2="0" gradientUnits="userSpaceOnUse" gradientTransform="matrix(144.428,0,0,145.272,-0.00033057,73.364)"><stop offset="0" style="stop-color:white;stop-opacity:1"/><stop offset="1" style="stop-color:white;stop-opacity:0"/></linearGradient>
        <linearGradient id="_Linear29" x1="0" y1="0" x2="1" y2="0" gradientUnits="userSpaceOnUse" gradientTransform="matrix(144.428,0,0,145.272,-0.00033057,73.364)"><stop offset="0" style="stop-color:white;stop-opacity:1"/><stop offset="1" style="stop-color:white;stop-opacity:0"/></linearGradient>
        <linearGradient id="_Linear30" x1="0" y1="0" x2="1" y2="0" gradientUnits="userSpaceOnUse" gradientTransform="matrix(144.428,0,0,145.272,-0.00033057,73.364)"><stop offset="0" style="stop-color:white;stop-opacity:1"/><stop offset="1" style="stop-color:white;stop-opacity:0"/></linearGradient>
        <linearGradient id="_Linear31" x1="0" y1="0" x2="1" y2="0" gradientUnits="userSpaceOnUse" gradientTransform="matrix(144.428,0,0,145.272,-0.00033057,73.364)"><stop offset="0" style="stop-color:white;stop-opacity:1"/><stop offset="1" style="stop-color:white;stop-opacity:0"/></linearGradient>
        <linearGradient id="_Linear32" x1="0" y1="0" x2="1" y2="0" gradientUnits="userSpaceOnUse" gradientTransform="matrix(144.428,0,0,145.272,-0.00033057,73.364)"><stop offset="0" style="stop-color:white;stop-opacity:1"/><stop offset="1" style="stop-color:white;stop-opacity:0"/></linearGradient>
        <linearGradient id="_Linear33" x1="0" y1="0" x2="1" y2="0" gradientUnits="userSpaceOnUse" gradientTransform="matrix(144.428,0,0,145.272,-0.00033057,73.364)"><stop offset="0" style="stop-color:white;stop-opacity:1"/><stop offset="1" style="stop-color:white;stop-opacity:0"/></linearGradient>
        <linearGradient id="_Linear34" x1="0" y1="0" x2="1" y2="0" gradientUnits="userSpaceOnUse" gradientTransform="matrix(144.428,0,0,145.272,-0.00033057,73.364)"><stop offset="0" style="stop-color:white;stop-opacity:1"/><stop offset="1" style="stop-color:white;stop-opacity:0"/></linearGradient>
        <linearGradient id="_Linear35" x1="0" y1="0" x2="1" y2="0" gradientUnits="userSpaceOnUse" gradientTransform="matrix(144.428,0,0,145.272,-0.00033057,73.364)"><stop offset="0" style="stop-color:white;stop-opacity:1"/><stop offset="1" style="stop-color:white;stop-opacity:0"/></linearGradient>
        <linearGradient id="_Linear36" x1="0" y1="0" x2="1" y2="0" gradientUnits="userSpaceOnUse" gradientTransform="matrix(144.428,0,0,145.272,-0.00033057,73.364)"><stop offset="0" style="stop-color:white;stop-opacity:1"/><stop offset="1" style="stop-color:white;stop-opacity:0"/></linearGradient>
        <linearGradient id="_Linear37" x1="0" y1="0" x2="1" y2="0" gradientUnits="userSpaceOnUse" gradientTransform="matrix(144.428,0,0,145.272,-0.00033057,73.364)"><stop offset="0" style="stop-color:white;stop-opacity:1"/><stop offset="1" style="stop-color:white;stop-opacity:0"/></linearGradient>
        <linearGradient id="_Linear38" x1="0" y1="0" x2="1" y2="0" gradientUnits="userSpaceOnUse" gradientTransform="matrix(144.428,0,0,145.272,-0.00033057,73.364)"><stop offset="0" style="stop-color:white;stop-opacity:1"/><stop offset="1" style="stop-color:white;stop-opacity:0"/></linearGradient>
        <linearGradient id="_Linear39" x1="0" y1="0" x2="1" y2="0" gradientUnits="userSpaceOnUse" gradientTransform="matrix(144.428,0,0,145.272,-0.00033057,73.364)"><stop offset="0" style="stop-color:white;stop-opacity:1"/><stop offset="1" style="stop-color:white;stop-opacity:0"/></linearGradient>
        <linearGradient id="_Linear40" x1="0" y1="0" x2="1" y2="0" gradientUnits="userSpaceOnUse" gradientTransform="matrix(144.428,0,0,145.272,-0.00033057,73.364)"><stop offset="0" style="stop-color:white;stop-opacity:1"/><stop offset="1" style="stop-color:white;stop-opacity:0"/></linearGradient>
        <linearGradient id="_Linear41" x1="0" y1="0" x2="1" y2="0" gradientUnits="userSpaceOnUse" gradientTransform="matrix(144.428,0,0,145.272,-0.00033057,73.364)"><stop offset="0" style="stop-color:white;stop-opacity:1"/><stop offset="1" style="stop-color:white;stop-opacity:0"/></linearGradient>
        <linearGradient id="_Linear42" x1="0" y1="0" x2="1" y2="0" gradientUnits="userSpaceOnUse" gradientTransform="matrix(144.428,0,0,145.272,-0.00033057,73.364)"><stop offset="0" style="stop-color:white;stop-opacity:1"/><stop offset="1" style="stop-color:white;stop-opacity:0"/></linearGradient>
        <linearGradient id="_Linear43" x1="0" y1="0" x2="1" y2="0" gradientUnits="userSpaceOnUse" gradientTransform="matrix(144.428,0,0,145.272,-0.00033057,73.364)"><stop offset="0" style="stop-color:white;stop-opacity:1"/><stop offset="1" style="stop-color:white;stop-opacity:0"/></linearGradient>
        <linearGradient id="_Linear44" x1="0" y1="0" x2="1" y2="0" gradientUnits="userSpaceOnUse" gradientTransform="matrix(144.428,0,0,145.272,-0.00033057,73.364)"><stop offset="0" style="stop-color:white;stop-opacity:1"/><stop offset="1" style="stop-color:white;stop-opacity:0"/></linearGradient>
        <linearGradient id="_Linear45" x1="0" y1="0" x2="1" y2="0" gradientUnits="userSpaceOnUse" gradientTransform="matrix(144.428,0,0,145.272,-0.00033057,73.364)"><stop offset="0" style="stop-color:white;stop-opacity:1"/><stop offset="1" style="stop-color:white;stop-opacity:0"/></linearGradient>
        <linearGradient id="_Linear46" x1="0" y1="0" x2="1" y2="0" gradientUnits="userSpaceOnUse" gradientTransform="matrix(144.428,0,0,145.272,-0.00033057,73.364)"><stop offset="0" style="stop-color:white;stop-opacity:1"/><stop offset="1" style="stop-color:white;stop-opacity:0"/></linearGradient>
        <linearGradient id="_Linear47" x1="0" y1="0" x2="1" y2="0" gradientUnits="userSpaceOnUse" gradientTransform="matrix(144.428,0,0,145.272,-0.00033057,73.364)"><stop offset="0" style="stop-color:white;stop-opacity:1"/><stop offset="1" style="stop-color:white;stop-opacity:0"/></linearGradient>
        <linearGradient id="_Linear48" x1="0" y1="0" x2="1" y2="0" gradientUnits="userSpaceOnUse" gradientTransform="matrix(144.428,0,0,145.272,-0.00033057,73.364)"><stop offset="0" style="stop-color:white;stop-opacity:1"/><stop offset="1" style="stop-color:white;stop-opacity:0"/></linearGradient>
        <linearGradient id="_Linear49" x1="0" y1="0" x2="1" y2="0" gradientUnits="userSpaceOnUse" gradientTransform="matrix(144.428,0,0,145.272,-0.00033057,73.364)"><stop offset="0" style="stop-color:white;stop-opacity:1"/><stop offset="1" style="stop-color:white;stop-opacity:0"/></linearGradient>
        <linearGradient id="_Linear50" x1="0" y1="0" x2="1" y2="0" gradientUnits="userSpaceOnUse" gradientTransform="matrix(144.428,0,0,145.272,-0.00033057,73.364)"><stop offset="0" style="stop-color:white;stop-opacity:1"/><stop offset="1" style="stop-color:white;stop-opacity:0"/></linearGradient>
    </defs>
</svg>
