<?xml version="1.0" encoding="UTF-8"?>
<svg id="Layer_1" data-name="Layer 1" xmlns="http://www.w3.org/2000/svg" viewBox="0 0 923.33 306.07">
  <defs>
    <style>
      .cls-1 {
        fill: #3e6ac7;
      }
    </style>
  </defs>
  <g>
    <g>
      <path d="M311.43,108.08c-4.91,0-9.47-1.05-13.65-3.14-4.19-2.09-7.8-4.85-10.85-8.26-3.05-3.41-5.42-7.3-7.1-11.67-1.69-4.37-2.53-8.87-2.53-13.51,0-4.91.82-9.6,2.46-14.06,1.64-4.46,3.91-8.37,6.83-11.74,2.91-3.37,6.37-6.05,10.37-8.05,4-2,8.37-3,13.1-3,3.18,0,6.19.46,9.01,1.36,2.82.91,5.44,2.16,7.85,3.75,2.41,1.59,4.59,3.44,6.55,5.53,1.96,2.09,3.62,4.28,4.98,6.55V7.07h4.64v92.28c0,2,.82,3,2.46,3v4.37c-.27.09-.64.14-1.09.14-1.64,0-3-.61-4.1-1.84-1.09-1.23-1.64-2.61-1.64-4.16v-8.6c-1.46,2.37-3.21,4.53-5.26,6.48-2.05,1.96-4.25,3.62-6.62,4.98-2.37,1.36-4.87,2.44-7.51,3.21-2.64.77-5.28,1.16-7.92,1.16ZM311.97,103.71c2.64,0,5.46-.55,8.46-1.64s5.8-2.57,8.4-4.44c2.59-1.86,4.78-4.05,6.55-6.55,1.77-2.5,2.8-5.12,3.07-7.85v-24.43c-1-2.73-2.48-5.3-4.44-7.71-1.96-2.41-4.21-4.5-6.76-6.28-2.55-1.77-5.26-3.18-8.12-4.23-2.87-1.04-5.67-1.57-8.4-1.57-4.37,0-8.33.93-11.88,2.8-3.55,1.87-6.55,4.32-9.01,7.37-2.46,3.05-4.37,6.51-5.73,10.38-1.37,3.87-2.05,7.85-2.05,11.94s.77,8.35,2.32,12.22c1.55,3.87,3.66,7.28,6.35,10.24,2.68,2.96,5.85,5.32,9.49,7.1,3.64,1.77,7.55,2.66,11.74,2.66Z"/>
      <path d="M365.48,18.53V7.07h4.64v11.47h-4.64ZM365.48,106.72V35.73h4.64v70.98h-4.64Z"/>
      <path d="M421.31,107.95c-4.91,0-9.47-1.05-13.65-3.14-4.19-2.09-7.78-4.85-10.78-8.26-3-3.41-5.35-7.3-7.03-11.67-1.69-4.37-2.53-8.83-2.53-13.38,0-4.82.8-9.44,2.39-13.85,1.59-4.41,3.84-8.33,6.76-11.74,2.91-3.41,6.39-6.14,10.44-8.19,4.05-2.05,8.53-3.07,13.45-3.07,3.09,0,6.01.46,8.74,1.36,2.73.91,5.28,2.14,7.64,3.69,2.37,1.55,4.55,3.37,6.55,5.46,2,2.09,3.82,4.32,5.46,6.69v-16.11h4.37v73.17c0,4.82-.89,8.99-2.66,12.49-1.77,3.5-4.14,6.44-7.1,8.8-2.96,2.37-6.39,4.12-10.31,5.26-3.91,1.14-8.01,1.71-12.29,1.71s-7.9-.41-11.12-1.23c-3.23-.82-6.07-1.96-8.53-3.41-2.46-1.46-4.62-3.21-6.48-5.25-1.87-2.05-3.48-4.3-4.85-6.76l3.41-1.91c2.91,5.09,6.83,8.78,11.74,11.06,4.91,2.27,10.19,3.41,15.83,3.41,3.82,0,7.39-.5,10.72-1.5,3.32-1,6.26-2.53,8.8-4.57,2.55-2.05,4.55-4.57,6.01-7.58,1.45-3,2.18-6.51,2.18-10.51v-16.65c-1.46,2.37-3.21,4.5-5.26,6.42s-4.25,3.55-6.62,4.91c-2.37,1.37-4.85,2.44-7.44,3.21-2.59.77-5.21,1.16-7.85,1.16ZM421.99,103.71c3.18,0,6.3-.61,9.35-1.84,3.05-1.23,5.8-2.82,8.26-4.78,2.46-1.96,4.48-4.14,6.07-6.55,1.59-2.41,2.53-4.85,2.8-7.3v-24.43c-1.09-2.82-2.62-5.46-4.57-7.92-1.96-2.46-4.16-4.55-6.62-6.28-2.46-1.73-5.1-3.09-7.92-4.1-2.82-1-5.69-1.5-8.6-1.5-4.55,0-8.6.96-12.15,2.87-3.55,1.91-6.55,4.42-9.01,7.51-2.46,3.09-4.32,6.58-5.6,10.44-1.28,3.87-1.91,7.76-1.91,11.67,0,4.28.77,8.35,2.32,12.22,1.55,3.87,3.66,7.28,6.35,10.24,2.68,2.96,5.85,5.32,9.49,7.1,3.64,1.77,7.55,2.66,11.74,2.66Z"/>
      <path d="M475.23,18.53V7.07h4.64v11.47h-4.64ZM475.23,106.72V35.73h4.64v70.98h-4.64Z"/>
      <path d="M531.6,103.44c-.18.09-.64.34-1.37.75-.73.41-1.71.87-2.94,1.37-1.23.5-2.64.93-4.23,1.3-1.59.36-3.34.55-5.26.55-3.55,0-6.62-1.02-9.21-3.07-2.59-2.05-3.89-4.94-3.89-8.67v-55.83h-10.1v-4.09h10.1V11.3h4.64v24.43h16.79v4.09h-16.79v55.15c.18,2.64,1.18,4.64,3,6.01,1.82,1.37,3.91,2.05,6.28,2.05,1.45,0,2.84-.16,4.16-.48,1.32-.32,2.48-.68,3.48-1.09,1-.41,1.82-.79,2.46-1.16.64-.36,1-.59,1.09-.68l1.77,3.82Z"/>
      <path d="M544.02,18.53V7.07h4.64v11.47h-4.64ZM544.02,106.72V35.73h4.64v70.98h-4.64Z"/>
      <path d="M564.23,102.89l52.42-63.2h-51.6v-3.96h56.92v3.82l-52.14,63.2h51.74v3.96h-57.33v-3.82Z"/>
      <path d="M654.86,108.08c-3.28,0-6.33-.57-9.15-1.71-2.82-1.14-5.28-2.68-7.37-4.64-2.09-1.96-3.73-4.25-4.91-6.89-1.18-2.64-1.77-5.5-1.77-8.6s.73-5.75,2.18-8.26c1.45-2.5,3.48-4.66,6.07-6.48,2.59-1.82,5.69-3.23,9.28-4.23,3.59-1,7.53-1.5,11.81-1.5,4,0,8.03.32,12.08.96,4.05.64,7.71,1.59,10.99,2.87v-7.64c0-7.1-2.03-12.76-6.07-17-4.05-4.23-9.49-6.35-16.31-6.35-3.46,0-7.15.75-11.06,2.25-3.91,1.5-7.83,3.66-11.74,6.48l-2.18-3.41c9.1-6.19,17.52-9.28,25.25-9.28,8.28,0,14.81,2.46,19.59,7.37,4.78,4.91,7.17,11.65,7.17,20.2v37.13c0,2,.82,3,2.46,3v4.37c-.27.09-.52.14-.75.14h-.61c-1.55,0-2.85-.57-3.89-1.71-1.05-1.14-1.57-2.53-1.57-4.16v-6.28c-3.28,4.28-7.51,7.58-12.69,9.9-5.19,2.32-10.78,3.48-16.79,3.48ZM655.41,104.12c3.37,0,6.76-.45,10.17-1.37,3.41-.91,6.48-2.16,9.21-3.75,2.73-1.59,4.96-3.43,6.69-5.53,1.73-2.09,2.59-4.32,2.59-6.69v-13.38c-7.1-2.73-14.65-4.09-22.66-4.09-3.73,0-7.15.41-10.24,1.23-3.09.82-5.76,1.96-7.99,3.41-2.23,1.46-3.96,3.21-5.19,5.26s-1.84,4.35-1.84,6.89.5,4.91,1.5,7.1c1,2.18,2.37,4.1,4.1,5.73,1.73,1.64,3.75,2.91,6.07,3.82,2.32.91,4.85,1.37,7.58,1.37Z"/>
      <path d="M738.95,103.44c-.18.09-.64.34-1.37.75-.73.41-1.71.87-2.94,1.37-1.23.5-2.64.93-4.23,1.3-1.59.36-3.34.55-5.26.55-3.55,0-6.62-1.02-9.21-3.07-2.59-2.05-3.89-4.94-3.89-8.67v-55.83h-10.1v-4.09h10.1V11.3h4.64v24.43h16.79v4.09h-16.79v55.15c.18,2.64,1.18,4.64,3,6.01,1.82,1.37,3.91,2.05,6.28,2.05,1.45,0,2.84-.16,4.16-.48,1.32-.32,2.48-.68,3.48-1.09,1-.41,1.82-.79,2.46-1.16.64-.36,1-.59,1.09-.68l1.77,3.82Z"/>
      <path d="M751.37,18.53V7.07h4.64v11.47h-4.64ZM751.37,106.72V35.73h4.64v70.98h-4.64Z"/>
      <path d="M807.34,108.08c-4.82,0-9.31-.98-13.45-2.94-4.14-1.96-7.76-4.59-10.85-7.92-3.09-3.32-5.51-7.21-7.23-11.67-1.73-4.46-2.59-9.15-2.59-14.06s.89-9.74,2.66-14.2c1.77-4.46,4.21-8.37,7.3-11.74,3.09-3.37,6.71-6.03,10.85-7.99,4.14-1.96,8.58-2.93,13.31-2.93s9.19.98,13.38,2.93c4.18,1.96,7.83,4.62,10.92,7.99,3.09,3.37,5.53,7.28,7.3,11.74,1.77,4.46,2.66,9.19,2.66,14.2s-.89,9.6-2.66,14.06c-1.77,4.46-4.19,8.35-7.23,11.67-3.05,3.32-6.67,5.96-10.85,7.92-4.19,1.96-8.69,2.94-13.51,2.94ZM777.85,71.63c0,4.37.77,8.51,2.32,12.42,1.55,3.91,3.64,7.33,6.28,10.24,2.64,2.91,5.75,5.21,9.35,6.89,3.59,1.68,7.39,2.53,11.4,2.53s7.94-.86,11.53-2.59c3.59-1.73,6.73-4.05,9.42-6.96,2.68-2.91,4.8-6.35,6.35-10.31,1.55-3.96,2.32-8.12,2.32-12.49s-.77-8.53-2.32-12.49c-1.55-3.96-3.66-7.39-6.35-10.31-2.69-2.91-5.82-5.23-9.42-6.96-3.6-1.73-7.39-2.59-11.4-2.59s-7.78.87-11.33,2.59c-3.55,1.73-6.67,4.07-9.35,7.03-2.69,2.96-4.82,6.42-6.42,10.37-1.59,3.96-2.39,8.17-2.39,12.63Z"/>
      <path d="M915.17,106.72h-4.64v-39.59c0-9.74-1.39-16.86-4.16-21.36-2.78-4.5-7.17-6.76-13.17-6.76-3.19,0-6.37.59-9.56,1.77-3.19,1.18-6.12,2.82-8.8,4.91-2.69,2.09-5.05,4.55-7.1,7.37-2.05,2.82-3.53,5.92-4.44,9.28v44.36h-4.64V35.73h4.5v17.75c1.45-2.82,3.28-5.39,5.46-7.71,2.18-2.32,4.64-4.3,7.37-5.94,2.73-1.64,5.62-2.91,8.67-3.82,3.05-.91,6.16-1.36,9.35-1.36,7.46,0,12.85,2.66,16.18,7.99,3.32,5.32,4.98,13.31,4.98,23.96v40.13Z"/>
    </g>
    <g>
      <path d="M283.94,226.03v-71.51h11.3v36.82l33.69-36.92h12.51l-28.24,31.67,29.86,39.94h-12.61l-24.21-32.98-10.99,11.4v21.58h-11.3Z"/>
      <path d="M361.8,175.59v50.43h-11.3v-71.61h8.88l40.95,51.64v-51.54h11.4v71.51h-9.38l-40.55-50.43Z"/>
      <path d="M457.62,226.53c-5.11,0-9.77-1.02-13.97-3.08-4.2-2.05-7.82-4.77-10.84-8.17-3.03-3.39-5.36-7.28-7.01-11.65-1.65-4.37-2.47-8.84-2.47-13.42s.87-9.35,2.62-13.72c1.75-4.37,4.15-8.24,7.21-11.6,3.06-3.36,6.69-6.04,10.89-8.02,4.2-1.98,8.79-2.98,13.77-2.98s9.77,1.06,13.97,3.18c4.2,2.12,7.8,4.89,10.79,8.32,2.99,3.43,5.31,7.31,6.96,11.65,1.65,4.34,2.47,8.76,2.47,13.26,0,4.78-.86,9.35-2.57,13.72-1.71,4.37-4.12,8.22-7.21,11.55-3.09,3.33-6.74,5.99-10.94,7.97-4.2,1.98-8.76,2.98-13.67,2.98ZM434.83,190.22c0,3.36.54,6.62,1.61,9.78,1.07,3.16,2.6,5.95,4.59,8.37,1.98,2.42,4.39,4.35,7.21,5.8,2.82,1.45,5.98,2.17,9.48,2.17s6.84-.76,9.63-2.27c2.79-1.51,5.16-3.51,7.11-6,1.95-2.49,3.43-5.28,4.44-8.37,1.01-3.09,1.51-6.25,1.51-9.48,0-3.43-.54-6.71-1.61-9.83-1.08-3.13-2.61-5.88-4.59-8.27-1.98-2.39-4.37-4.3-7.16-5.75-2.79-1.45-5.9-2.17-9.33-2.17-3.63,0-6.86.76-9.68,2.27-2.82,1.51-5.21,3.48-7.16,5.9-1.95,2.42-3.45,5.19-4.49,8.32-1.04,3.13-1.56,6.3-1.56,9.53Z"/>
      <path d="M526.51,154.72h10.69l8.78,24.31,8.88-24.31h10.59l-12.2,31.87,10.69,26.33,22.29-58.5h12.41l-29.55,71.61h-9.68l-13.31-32.07-13.41,32.07h-9.68l-29.55-71.61h12.31l22.39,58.5,10.69-26.33-12.31-31.87Z"/>
      <path d="M607.1,226.03v-71.61h11.3v61.63h38.43v9.99h-49.73Z"/>
      <path d="M715.13,216.04v9.99h-49.12v-71.61h48.21v9.99h-36.92v20.38h31.97v9.38h-31.97v21.89h37.82Z"/>
      <path d="M726.83,226.03v-71.61h25.42c5.78,0,10.84.94,15.18,2.82,4.34,1.88,7.97,4.44,10.89,7.67,2.93,3.23,5.13,7.01,6.61,11.35,1.48,4.34,2.22,8.96,2.22,13.87,0,5.45-.82,10.37-2.47,14.78-1.65,4.41-3.98,8.17-7.01,11.3-3.03,3.13-6.69,5.55-10.99,7.26-4.3,1.71-9.11,2.57-14.42,2.57h-25.42ZM775.65,190.12c0-3.77-.52-7.23-1.56-10.39-1.04-3.16-2.57-5.87-4.59-8.12-2.02-2.25-4.47-4.02-7.36-5.29-2.89-1.28-6.19-1.92-9.88-1.92h-14.12v51.64h14.12c3.77,0,7.11-.66,10.04-1.97,2.92-1.31,5.38-3.13,7.36-5.45,1.98-2.32,3.48-5.06,4.49-8.22,1.01-3.16,1.51-6.59,1.51-10.29Z"/>
      <path d="M849.17,217.15c-6.05,6.25-13.01,9.38-20.88,9.38-4.78,0-9.21-.99-13.31-2.98-4.1-1.98-7.67-4.66-10.69-8.02-3.03-3.36-5.4-7.26-7.11-11.7-1.71-4.44-2.57-9.08-2.57-13.92s.86-9.45,2.57-13.82c1.71-4.37,4.08-8.2,7.11-11.5,3.03-3.29,6.62-5.9,10.79-7.82,4.17-1.92,8.71-2.87,13.62-2.87,6.86,0,12.61,1.43,17.25,4.29,4.64,2.86,8.14,6.64,10.49,11.35l-8.67,6.25c-1.95-3.9-4.64-6.82-8.07-8.77-3.43-1.95-7.2-2.93-11.3-2.93-3.36,0-6.42.72-9.18,2.17-2.76,1.45-5.11,3.36-7.06,5.75-1.95,2.39-3.45,5.16-4.49,8.32-1.04,3.16-1.56,6.46-1.56,9.88,0,3.63.59,7.03,1.77,10.19,1.18,3.16,2.79,5.92,4.84,8.27,2.05,2.35,4.49,4.22,7.31,5.6,2.82,1.38,5.88,2.07,9.18,2.07,3.63,0,7.11-.84,10.44-2.52,3.33-1.68,6.51-4.34,9.53-7.97v-7.67h-15.03v-8.37h24.51v36.21h-9.48v-8.88Z"/>
      <path d="M920.69,216.04v9.99h-49.12v-71.61h48.21v9.99h-36.92v20.38h31.97v9.38h-31.97v21.89h37.82Z"/>
    </g>
    <g>
      <path class="cls-1" d="M461.11,294.64c-2.21,0-4.16-.53-5.85-1.58s-3.02-2.42-4-4.11v16.38h-5.79v-38.77h5.11v4.95c1.05-1.65,2.41-2.97,4.08-3.95,1.67-.98,3.56-1.48,5.66-1.48,1.9,0,3.63.39,5.22,1.16,1.58.77,2.95,1.81,4.11,3.11,1.16,1.3,2.06,2.81,2.71,4.53.65,1.72.97,3.53.97,5.43,0,2-.3,3.87-.9,5.61-.6,1.74-1.44,3.25-2.53,4.53-1.09,1.28-2.38,2.3-3.87,3.06-1.49.75-3.13,1.13-4.93,1.13ZM459.21,289.69c1.23,0,2.34-.26,3.35-.79,1-.53,1.86-1.23,2.58-2.11.72-.88,1.27-1.88,1.66-3,.39-1.12.58-2.28.58-3.48,0-1.26-.22-2.46-.66-3.58-.44-1.12-1.04-2.11-1.79-2.95-.76-.84-1.66-1.51-2.71-2s-2.2-.74-3.42-.74c-.74,0-1.51.14-2.32.42-.81.28-1.56.67-2.27,1.16-.7.49-1.32,1.06-1.84,1.71-.53.65-.9,1.36-1.11,2.13v7.22c.35.84.81,1.63,1.37,2.37.56.74,1.19,1.37,1.87,1.9.68.53,1.43.95,2.24,1.26.81.32,1.63.47,2.48.47Z"/>
      <path class="cls-1" d="M490.92,294.64c-2.18,0-4.14-.39-5.87-1.16-1.74-.77-3.22-1.81-4.45-3.11-1.23-1.3-2.18-2.82-2.84-4.56-.67-1.74-1-3.56-1-5.45s.33-3.71,1-5.45c.67-1.74,1.62-3.26,2.87-4.56,1.25-1.3,2.74-2.33,4.48-3.11,1.74-.77,3.68-1.16,5.82-1.16s4.08.39,5.82,1.16c1.74.77,3.23,1.81,4.48,3.11,1.25,1.3,2.2,2.82,2.87,4.56.67,1.74,1,3.56,1,5.45s-.33,3.71-1,5.45c-.67,1.74-1.62,3.26-2.87,4.56-1.25,1.3-2.74,2.34-4.48,3.11-1.74.77-3.68,1.16-5.82,1.16ZM482.7,280.42c0,1.33.21,2.56.63,3.69s1,2.1,1.74,2.92c.74.83,1.61,1.47,2.61,1.95s2.08.71,3.24.71,2.24-.24,3.24-.71,1.87-1.13,2.61-1.98c.74-.84,1.32-1.83,1.74-2.95s.63-2.35.63-3.69-.21-2.52-.63-3.66c-.42-1.14-1-2.13-1.74-2.98-.74-.84-1.61-1.5-2.61-1.98-1-.47-2.08-.71-3.24-.71s-2.19.25-3.19.74-1.87,1.16-2.61,2c-.74.84-1.33,1.84-1.76,2.98-.44,1.14-.66,2.36-.66,3.66Z"/>
      <path class="cls-1" d="M543.6,266.56h5.53l-11.59,27.55h-4.79l-5.11-12.8-5.11,12.8h-4.79l-11.64-27.55h5.53l8.9,21.97,4-10.22-4.79-11.7h4.74l3.16,8.64,3.11-8.64h4.74l-4.74,11.7,4,10.22,8.85-21.97Z"/>
      <path class="cls-1" d="M564.47,294.64c-2.14,0-4.09-.38-5.85-1.13-1.76-.75-3.26-1.78-4.5-3.08-1.25-1.3-2.21-2.81-2.9-4.53-.68-1.72-1.03-3.55-1.03-5.48s.34-3.77,1.03-5.51c.69-1.74,1.65-3.27,2.9-4.58,1.25-1.32,2.75-2.35,4.5-3.11,1.76-.75,3.72-1.13,5.9-1.13s4.08.39,5.82,1.16c1.74.77,3.22,1.8,4.45,3.08,1.23,1.28,2.17,2.77,2.82,4.48.65,1.7.97,3.49.97,5.35,0,.42-.02.82-.05,1.19-.04.37-.07.68-.11.92h-22.07c.11,1.23.4,2.34.87,3.32.47.98,1.09,1.84,1.84,2.56.75.72,1.62,1.27,2.58,1.66.97.39,1.98.58,3.03.58.77,0,1.54-.1,2.29-.29.75-.19,1.45-.47,2.08-.84.63-.37,1.19-.82,1.69-1.34.49-.53.88-1.11,1.16-1.74l4.95,1.42c-.95,2.07-2.52,3.77-4.71,5.08-2.2,1.32-4.75,1.98-7.67,1.98ZM572.84,278.26c-.1-1.16-.4-2.23-.87-3.21-.47-.98-1.08-1.82-1.82-2.5-.74-.69-1.6-1.22-2.58-1.61-.98-.39-2.02-.58-3.11-.58s-2.12.19-3.08.58c-.97.39-1.82.92-2.56,1.61-.74.68-1.33,1.52-1.79,2.5-.46.98-.74,2.05-.84,3.21h16.65Z"/>
      <path class="cls-1" d="M598.81,271.57c-2.25.07-4.24.59-5.98,1.55-1.74.97-2.98,2.34-3.71,4.14v16.86h-5.79v-27.55h5.37v6.16c.95-1.9,2.19-3.42,3.71-4.56,1.53-1.14,3.17-1.76,4.93-1.87h.87c.23,0,.43.02.61.05v5.22Z"/>
      <path class="cls-1" d="M614.14,294.64c-2.14,0-4.09-.38-5.85-1.13-1.76-.75-3.26-1.78-4.5-3.08-1.25-1.3-2.21-2.81-2.9-4.53-.68-1.72-1.03-3.55-1.03-5.48s.34-3.77,1.03-5.51c.69-1.74,1.65-3.27,2.9-4.58,1.25-1.32,2.75-2.35,4.5-3.11,1.76-.75,3.72-1.13,5.9-1.13s4.08.39,5.82,1.16c1.74.77,3.22,1.8,4.45,3.08,1.23,1.28,2.17,2.77,2.82,4.48.65,1.7.97,3.49.97,5.35,0,.42-.02.82-.05,1.19-.04.37-.07.68-.11.92h-22.07c.11,1.23.4,2.34.87,3.32.47.98,1.09,1.84,1.84,2.56.75.72,1.62,1.27,2.58,1.66.97.39,1.98.58,3.03.58.77,0,1.54-.1,2.29-.29.75-.19,1.45-.47,2.08-.84.63-.37,1.19-.82,1.69-1.34.49-.53.88-1.11,1.16-1.74l4.95,1.42c-.95,2.07-2.52,3.77-4.71,5.08-2.2,1.32-4.75,1.98-7.67,1.98ZM622.52,278.26c-.1-1.16-.4-2.23-.87-3.21-.47-.98-1.08-1.82-1.82-2.5-.74-.69-1.6-1.22-2.58-1.61-.98-.39-2.02-.58-3.11-.58s-2.12.19-3.08.58c-.97.39-1.82.92-2.56,1.61-.74.68-1.33,1.52-1.79,2.5-.46.98-.74,2.05-.84,3.21h16.65Z"/>
      <path class="cls-1" d="M644.23,294.64c-1.86,0-3.58-.38-5.16-1.13-1.58-.75-2.95-1.78-4.11-3.08-1.16-1.3-2.06-2.82-2.71-4.56s-.97-3.61-.97-5.61.31-3.75.92-5.45c.61-1.7,1.48-3.2,2.58-4.5,1.11-1.3,2.41-2.33,3.9-3.08,1.49-.75,3.13-1.13,4.93-1.13,2.21,0,4.16.54,5.85,1.61,1.69,1.07,3,2.43,3.95,4.08v-16.12h5.8v31.61c0,.67.11,1.14.34,1.42.23.28.64.44,1.24.47v4.95c-.6.11-1.08.17-1.45.21-.37.03-.68.05-.92.05-1.16,0-2.11-.3-2.84-.9-.74-.6-1.14-1.37-1.21-2.32l-.1-2.05c-1.02,1.72-2.41,3.07-4.16,4.06-1.76.98-3.71,1.47-5.85,1.47ZM645.65,289.69c.84,0,1.69-.14,2.53-.42s1.62-.67,2.32-1.16c.7-.49,1.31-1.07,1.82-1.74.51-.67.87-1.39,1.08-2.16v-7.22c-.32-.88-.76-1.69-1.34-2.42-.58-.74-1.24-1.37-1.98-1.9-.74-.53-1.52-.93-2.34-1.21-.83-.28-1.66-.42-2.5-.42-1.16,0-2.22.26-3.19.79-.97.53-1.8,1.23-2.5,2.11-.7.88-1.26,1.88-1.66,3-.4,1.12-.61,2.28-.61,3.48,0,1.26.22,2.46.66,3.58.44,1.12,1.04,2.11,1.82,2.95.77.84,1.66,1.51,2.66,2,1,.49,2.08.74,3.24.74Z"/>
      <path class="cls-1" d="M694.43,294.64c-2.11,0-4.01-.5-5.72-1.5-1.7-1-3.05-2.34-4.03-4.03v5h-5.11v-38.46h5.79v16.12c1.09-1.76,2.45-3.14,4.08-4.16,1.63-1.02,3.56-1.53,5.77-1.53,1.83,0,3.49.4,5,1.19,1.51.79,2.8,1.84,3.87,3.16,1.07,1.32,1.9,2.84,2.48,4.58s.87,3.56.87,5.45-.33,3.81-1,5.53c-.67,1.72-1.58,3.22-2.74,4.5-1.16,1.28-2.54,2.29-4.14,3.03-1.6.74-3.31,1.11-5.14,1.11ZM692.9,289.69c1.26,0,2.42-.25,3.48-.76,1.05-.51,1.96-1.19,2.71-2.03.75-.84,1.34-1.82,1.77-2.92.42-1.11.63-2.27.63-3.5s-.2-2.42-.61-3.56c-.4-1.14-.97-2.14-1.69-3-.72-.86-1.58-1.55-2.58-2.08-1-.53-2.1-.79-3.29-.79-1.79,0-3.38.58-4.77,1.74-1.39,1.16-2.45,2.56-3.19,4.21v7.27c.21.81.58,1.54,1.11,2.19s1.14,1.22,1.84,1.71c.7.49,1.46.87,2.27,1.13.81.26,1.58.39,2.32.39Z"/>
      <path class="cls-1" d="M712.66,300.59c.53.11,1.04.19,1.55.26.51.07.92.11,1.24.11.46,0,.85-.1,1.19-.29.33-.19.68-.54,1.03-1.03.35-.49.71-1.19,1.08-2.08.37-.9.8-2.05,1.29-3.45l-11.33-27.55h5.95l8.53,22.44,7.59-22.44h5.48l-12.49,33.93c-.56,1.58-1.54,2.91-2.92,3.98-1.39,1.07-3.17,1.61-5.35,1.61-.42,0-.86-.03-1.32-.08-.46-.05-.97-.17-1.53-.34v-5.06Z"/>
      <path class="cls-1" d="M752.12,262.03v-6.37h5.79v6.37h-5.79ZM752.12,294.12v-27.55h5.79v27.55h-5.79Z"/>
      <path class="cls-1" d="M765.6,294.12v-37.4h13.28c3.02,0,5.66.49,7.93,1.47,2.27.98,4.16,2.32,5.69,4,1.53,1.69,2.68,3.66,3.45,5.93.77,2.27,1.16,4.68,1.16,7.24,0,2.84-.43,5.42-1.29,7.72-.86,2.3-2.08,4.27-3.66,5.9-1.58,1.63-3.5,2.9-5.74,3.79-2.25.9-4.76,1.34-7.53,1.34h-13.28ZM791.1,275.36c0-1.97-.27-3.78-.82-5.43-.54-1.65-1.34-3.06-2.4-4.24s-2.34-2.1-3.85-2.77c-1.51-.67-3.23-1-5.16-1h-7.38v26.97h7.38c1.97,0,3.71-.34,5.24-1.03s2.81-1.63,3.85-2.84c1.04-1.21,1.82-2.64,2.34-4.29.53-1.65.79-3.44.79-5.37Z"/>
      <path class="cls-1" d="M802.59,262.03v-6.37h5.79v6.37h-5.79ZM802.59,294.12v-27.55h5.79v27.55h-5.79Z"/>
      <path class="cls-1" d="M826.24,294.38c-1.86,0-3.57-.38-5.11-1.13-1.55-.75-2.87-1.78-3.98-3.08-1.11-1.3-1.97-2.79-2.58-4.48-.61-1.69-.92-3.46-.92-5.32,0-1.97.32-3.82.95-5.56.63-1.74,1.51-3.25,2.63-4.53,1.12-1.28,2.47-2.3,4.03-3.06,1.56-.75,3.29-1.13,5.19-1.13,2.21,0,4.15.53,5.82,1.58,1.67,1.05,3.05,2.42,4.14,4.11v-5.22h5.11v26.76c0,2-.37,3.77-1.11,5.32-.74,1.54-1.77,2.85-3.08,3.92s-2.87,1.89-4.66,2.45c-1.79.56-3.72.84-5.8.84-3.06,0-5.59-.52-7.61-1.55-2.02-1.04-3.71-2.48-5.08-4.35l3.27-3.06c1.05,1.47,2.41,2.6,4.08,3.37,1.67.77,3.45,1.16,5.35,1.16,1.19,0,2.33-.16,3.4-.47,1.07-.32,2.01-.81,2.82-1.48.81-.67,1.45-1.51,1.92-2.53.47-1.02.71-2.23.71-3.63v-4.21c-.98,1.69-2.34,2.99-4.06,3.9-1.72.91-3.53,1.37-5.43,1.37ZM828.14,289.69c.88,0,1.72-.15,2.53-.45.81-.3,1.55-.7,2.24-1.21.69-.51,1.27-1.09,1.77-1.74.49-.65.84-1.34,1.05-2.08v-7.22c-.35-.88-.81-1.68-1.37-2.4-.56-.72-1.2-1.34-1.92-1.87-.72-.53-1.48-.94-2.29-1.24-.81-.3-1.62-.45-2.42-.45-1.26,0-2.4.27-3.4.82-1,.54-1.85,1.26-2.56,2.16-.7.9-1.25,1.91-1.63,3.03-.39,1.12-.58,2.28-.58,3.48,0,1.26.22,2.45.66,3.56.44,1.11,1.04,2.07,1.82,2.9.77.83,1.68,1.48,2.71,1.98,1.04.49,2.17.74,3.4.74Z"/>
      <path class="cls-1" d="M878.61,284.47c0,1.51-.31,2.86-.92,4.06-.61,1.2-1.44,2.21-2.48,3.03-1.04.83-2.26,1.46-3.66,1.9-1.41.44-2.9.66-4.48.66h-17.86v-37.4h19.28c1.3,0,2.48.28,3.53.84,1.05.56,1.95,1.29,2.69,2.19.74.9,1.31,1.91,1.71,3.06.4,1.14.61,2.29.61,3.45,0,1.83-.47,3.54-1.4,5.14-.93,1.6-2.26,2.78-3.98,3.56,2.14.63,3.84,1.78,5.08,3.45,1.25,1.67,1.87,3.7,1.87,6.08ZM855.11,261.82v11.01h10.85c.74,0,1.41-.14,2.03-.42.61-.28,1.16-.66,1.63-1.13.47-.47.84-1.04,1.11-1.71.26-.67.4-1.4.4-2.21,0-1.62-.46-2.94-1.37-3.98-.91-1.04-2.07-1.55-3.48-1.55h-11.17ZM872.55,283.37c0-.77-.13-1.51-.4-2.21-.26-.7-.62-1.32-1.05-1.84-.44-.53-.97-.95-1.61-1.26s-1.32-.47-2.05-.47h-12.33v11.43h11.96c.77,0,1.49-.15,2.16-.45.67-.3,1.25-.7,1.74-1.21.49-.51.88-1.11,1.16-1.79.28-.68.42-1.41.42-2.19Z"/>
      <path class="cls-1" d="M884.03,262.03v-6.37h5.79v6.37h-5.79ZM884.03,294.12v-27.55h5.79v27.55h-5.79Z"/>
      <path class="cls-1" d="M909.16,294.64c-2.18,0-4.14-.39-5.87-1.16-1.74-.77-3.22-1.81-4.45-3.11-1.23-1.3-2.18-2.82-2.84-4.56-.67-1.74-1-3.56-1-5.45s.33-3.71,1-5.45c.67-1.74,1.62-3.26,2.87-4.56,1.25-1.3,2.74-2.33,4.48-3.11,1.74-.77,3.68-1.16,5.82-1.16s4.08.39,5.82,1.16c1.74.77,3.23,1.81,4.48,3.11,1.25,1.3,2.2,2.82,2.87,4.56.67,1.74,1,3.56,1,5.45s-.33,3.71-1,5.45c-.67,1.74-1.62,3.26-2.87,4.56-1.25,1.3-2.74,2.34-4.48,3.11-1.74.77-3.68,1.16-5.82,1.16ZM900.94,280.42c0,1.33.21,2.56.63,3.69s1,2.1,1.74,2.92c.74.83,1.61,1.47,2.61,1.95s2.08.71,3.24.71,2.24-.24,3.24-.71,1.87-1.13,2.61-1.98c.74-.84,1.32-1.83,1.74-2.95s.63-2.35.63-3.69-.21-2.52-.63-3.66c-.42-1.14-1-2.13-1.74-2.98-.74-.84-1.61-1.5-2.61-1.98-1-.47-2.08-.71-3.24-.71s-2.19.25-3.19.74-1.87,1.16-2.61,2c-.74.84-1.33,1.84-1.76,2.98-.44,1.14-.66,2.36-.66,3.66Z"/>
    </g>
  </g>
  <path class="cls-1" d="M190.38,251.39c6.55-.17,20.64-1.16,26.27-2.62,5.89-1.53,11.88-3.87,15.86-8.6l.09-.11c7.36-8.86,5.63-22,5.55-22.55l-.41-2.96-2.99.14c-.56.03-13.8.72-21.16,9.58-5.23,6.29-5.87,14.75-5.77,19.31-5.54.93-11.36,1.3-16.19,1.37h-51.74c20.82-6.59,39.65-18.12,55.54-34,26.07-26.07,40.43-60.74,40.43-97.62l-.04-44.97c-.11-12.24-6.01-23.47-15.78-32.35,11.56-5.91,20.63-14.67,20.63-32.72,0-1.81-1.47-3.29-3.29-3.29-18.11,0-28.37,11.2-32.13,16.35-5.47-2.15-19.14-6.41-41.46-6.41s-35.99,4.26-41.46,6.41c-3.76-5.15-14.03-16.35-32.13-16.35-1.81,0-3.29,1.47-3.29,3.29,0,18.22,8.9,27.08,20.33,32.99-9.6,8.83-15.38,19.96-15.49,32.08l-.06,42.63L29.78,244.95H11.03l-2.98,6.57s177.76,0,182.33-.13ZM218.64,228.47c3.6-4.34,9.51-6.09,13.16-6.78,0,2.33-.26,5.61-1.34,8.8-.64,1.9-1.57,3.77-2.92,5.39-3.6,4.34-9.51,6.09-13.16,6.78,0-.17,0-.34,0-.51.07-3.75.81-9.52,4.25-13.67h0ZM43.53,230.78l10.83-23.44,43.48.02c51.83-.02,94-42.2,94-94.03h37.45c0,72.61-58.86,131.48-131.48,131.48h-60.77l4.96-10.74,1.52-3.29ZM77.75,156.75l.27-.58,13.81-29.88,3-6.48,3-6.48h43.44c0,23.98-19.43,43.43-43.41,43.44l-20.1-.02ZM97.85,163.34c27.56-.02,49.98-22.45,49.98-50.01h37.45c0,48.29-39.14,87.44-87.43,87.46l-40.44-.02.27-.58,17.04-36.87,23.14.02ZM118.24,22.06c.86,1.54,2.8,2.13,4.37,1.32.12-.06,10.68-5.33,31.87-6.59,2.9-.17,6-.27,9.31-.27s6.4.1,9.31.27c21.18,1.27,31.75,6.53,31.86,6.59,1.57.81,3.51.23,4.38-1.31.34-.59,7.95-13.71,24.63-15.33-1.14,13.46-9.04,19.87-19.56,24.71-2.31,1.06-4.74,2.05-7.25,3.02-1.64.63-3.3,1.25-5,1.88-14.98,5.58-31.5,11.73-38.37,29.57-6.85-17.64-23.24-23.65-38.11-29.1-1.92-.7-3.8-1.4-5.65-2.1-2.5-.96-4.92-1.94-7.21-3-10.37-4.82-18.11-11.32-19.21-24.97,16.68,1.62,24.3,14.74,24.63,15.32ZM98.33,68.41c.1-11.08,5.89-21.25,15.4-29.15,3.17,1.32,6.44,2.52,9.68,3.71,19.08,7,37.09,13.6,37.09,42.66,0,1.81,1.47,3.29,3.29,3.29s3.29-1.47,3.29-3.29c0-29.21,18.15-35.97,37.37-43.13,3.04-1.13,6.09-2.27,9.06-3.51,9.71,7.94,15.64,18.21,15.74,29.42l.08,38.48H98.24l.09-38.48ZM146.48,71.07c0-8.81-7.17-15.98-15.98-15.98s-15.98,7.17-15.98,15.98,7.17,15.98,15.98,15.98,15.98-7.17,15.98-15.98ZM130.5,80.48c-5.19,0-9.41-4.22-9.41-9.41s4.22-9.41,9.41-9.41,9.41,4.22,9.41,9.41-4.22,9.41-9.41,9.41ZM197.08,87.05c8.81,0,15.98-7.17,15.98-15.98s-7.17-15.98-15.98-15.98-15.98,7.17-15.98,15.98,7.17,15.98,15.98,15.98ZM197.08,61.66c5.19,0,9.41,4.22,9.41,9.41s-4.22,9.41-9.41,9.41-9.41-4.22-9.41-9.41,4.22-9.41,9.41-9.41ZM268.23,263.74c-.38-.41-9.38-10.15-20.89-10.15-9.38,0-17.09,6.46-19.83,9.07l-148.74-.02-75.79.02L0,269.24h18.82L1.36,305.34h34.03c13.81,0,26.63-8.04,32.64-20.47l7.56-15.62h74.33c8.75.12,20.47,1.08,28.72,4.2-.15,4.44.35,13.26,5.76,19.76h0c7.36,8.86,20.6,9.55,21.16,9.58l2.99.14.41-2.96c.08-.56,1.81-13.7-5.55-22.55-3.75-4.51-9.01-6.9-13.35-8.17h37.45c2.74,2.62,10.45,9.08,19.83,9.08,11.52,0,20.51-9.73,20.89-10.15l2.02-2.21-2.02-2.21ZM198.37,281.6c3.6,4.34,4.25,10.46,4.26,14.18-3.66-.69-9.56-2.44-13.16-6.78h0c-2.92-3.52-3.9-8.21-4.17-11.84-.06-.85-.09-1.64-.09-2.34,2.38.45,5.69,1.36,8.72,3.12,1.63.95,3.18,2.14,4.45,3.66ZM35.39,298.77H11.84l14.28-29.53h42.18l-6.17,12.76c-4.93,10.18-15.42,16.76-26.73,16.76ZM247.34,271.74c-5.64,0-10.76-3.42-13.63-5.79,2.87-2.37,7.99-5.79,13.63-5.79s10.76,3.42,13.63,5.79c-2.87,2.37-7.99,5.79-13.63,5.79Z"/>
</svg>