<?xml version="1.0" encoding="UTF-8"?>
<svg id="Layer_2" data-name="Layer 2" xmlns="http://www.w3.org/2000/svg" viewBox="0 0 601.41 597.85">
  <defs>
    <style>
      .cls-1 {
        fill: #edeff5;
      }

      .cls-1, .cls-2 {
        stroke-width: 0px;
      }

      .cls-2 {
        fill: #fefefe;
      }
    </style>
  </defs>
  <g id="Layer_1-2" data-name="Layer 1">
    <g>
      <path class="cls-2" d="M0,0h601.41v597.85H0C0,398.57,0,199.28,0,0ZM94.3,232.88c-2.78,4.31-10.59,5.2-15.09,6.95-5.47,2.12-10.87,4.47-16.11,7.11-10.59,5.34-20.73,11.77-30.21,18.88-4.98,3.73-9.7,7.79-14.53,11.71-4.03,3.28-9.83,6.2-13.17,10.09-6.16,7.16.9,23.03,3.27,30.75,3.34,10.9,8.63,21.61,13.8,31.76,22.88,44.94,56.95,82.55,95.86,114.18,78.02,63.43,175.49,101.79,273.61,120.73,24.02,4.64,48.55,7.71,72.99,8.93,13.18.66,26.41.53,39.61.43,5.21-.04,12.97,1.5,17.64-1.12,4.45-2.49,7-9.61,9.19-13.91,22.65-44.46,39.51-90.34,49.49-139.3,4.96-24.36,9.87-48.76,12.66-73.47,2.79-24.65,5.33-50.64,3.69-75.44-1.56-23.62-2.09-47.02-5.81-70.5-4.02-25.35-10.33-50.73-18.38-75.09-14.7-44.46-38.18-88.59-71.62-121.79-4.44-4.4-9.08-8.59-13.85-12.63-4.26-3.6-8.32-7.92-14.35-7.15-10.75,1.37-22.42,8.67-32.17,13.16-10.72,4.93-21.16,11.14-30.74,18.04-9.6,6.92-17.8,16.33-27.7,22.66-7.15-1.97-14.17-6.63-20.91-9.74-7.25-3.35-14.62-6.28-22.07-9.15-15.38-5.92-31.21-10.66-47.24-14.47-28.74-6.83-56.65-9.75-85.95-4.62-29.01,5.08-52.2,20.1-70.14,43.27-17.66,22.82-27.87,52.28-33.75,80.28-6.21,29.55-8.02,59.33-8.02,89.44Z"/>
      <path class="cls-1" d="M94.3,232.88c0-30.11,1.81-59.89,8.02-89.44,5.89-28.01,16.09-57.47,33.75-80.28,17.94-23.17,41.13-38.19,70.14-43.27,29.3-5.13,57.21-2.22,85.95,4.62,16.03,3.81,31.86,8.55,47.24,14.47,7.45,2.87,14.82,5.8,22.07,9.15,6.74,3.11,13.76,7.77,20.91,9.74,9.91-6.33,18.1-15.75,27.7-22.66,9.58-6.9,20.02-13.11,30.74-18.04,9.75-4.48,21.42-11.78,32.17-13.16,6.03-.77,10.09,3.54,14.35,7.15,4.77,4.04,9.42,8.23,13.85,12.63,33.44,33.2,56.92,77.33,71.62,121.79,8.05,24.36,14.36,49.74,18.38,75.09,3.72,23.48,4.25,46.88,5.81,70.5,1.64,24.8-.91,50.79-3.69,75.44-2.79,24.7-7.7,49.11-12.66,73.47-9.98,48.96-26.84,94.84-49.49,139.3-2.19,4.3-4.74,11.42-9.19,13.91-4.66,2.61-12.43,1.08-17.64,1.12-13.2.1-26.42.23-39.61-.43-24.44-1.22-48.97-4.29-72.99-8.93-98.12-18.93-195.6-57.3-273.61-120.73-38.91-31.63-72.97-69.25-95.86-114.18-5.17-10.15-10.46-20.86-13.8-31.76-2.37-7.72-9.43-23.59-3.27-30.75,3.34-3.89,9.15-6.81,13.17-10.09,4.82-3.93,9.55-7.98,14.53-11.71,9.48-7.11,19.63-13.54,30.21-18.88,5.24-2.64,10.64-4.98,16.11-7.11,4.49-1.74,12.31-2.64,15.09-6.95ZM362.15,340.34c.07.22-.11.62.54.59-.24-.27-.39-.43-.53-.6-1.21-7.26-5.36-14.74-7.82-21.7-2.55-7.21-5.02-14.45-7.47-21.7-4.79-14.15-8.09-28.72-10.8-43.41-2.75-14.87-4.59-29.91-5.28-45.03-.69-15.04.7-29.75,1.53-44.74-32.94-21.93-71.4-37.55-110.51-43.89-10.41,38.43-13.53,77.04-7.89,116.34,29.4,11.78,56.74,25.27,82.05,44.54,12.67,9.65,25.14,19.83,36.68,30.84,5.14,4.9,10,10.08,15.19,14.94,2.7,2.53,5.35,5.12,7.91,7.79,1.38,1.44,4.26,6.03,6.41,6.01ZM428.82,220.31c7.36,10.76,16.72,20.22,24.47,30.74,7.95,10.78,15.58,22.06,22.47,33.55,14.26,23.77,26.12,49.18,35.09,75.4,9.17,26.8,15.89,53.65,19.66,81.76,1.88,13.98,3.14,28.06,3.89,42.14.39,7.28.27,14.51.25,21.79-.01,3.57.02,7.14.04,10.71.01,1.91-.83,5.95.21,7.72,3.56.65,13.89-35.6,15.1-39.65,4.52-15.18,8.14-30.56,11.2-46.09,10.61-53.93,6.79-108.21-9.61-160.6-8.02-25.64-19.92-52.19-35.44-74.2-7.62-10.8-14.75-21.89-23.24-32.05-7.74-9.26-15.96-22.62-26.99-28.17-17.92,23.02-31.41,48.07-37.1,76.95ZM453.8,572.52c-2-2.16-6.08-2.91-8.7-4.05-3.6-1.57-7.09-3.38-10.61-5.1-7.73-3.79-15.57-7.41-23.11-11.57-13.46-7.43-26.68-15.47-39.25-24.33-45.5-32.07-85.24-71.53-115.57-118.35-7.65-11.81-14.53-23.65-20.82-36.25-3.1-6.2-6.51-12.24-9.44-18.53-2.25-4.81-4.33-8.09-9.66-9.65-13.27-3.89-28.98-4.76-42.7-4.25-7.09.26-14.05,1.64-21.1,2.38-4.82.51-13.64-.4-16.44,4.67,9.53,27.9,23.52,54.63,39.89,79.11,30.06,44.97,72.34,81.28,120.19,106.15,25.23,13.11,52.34,22.77,79.94,29.42,13.36,3.22,26.86,5.63,40.44,7.73,6.87,1.06,13.76,1.87,20.67,2.61,2.97.32,14.48,3.23,16.27.02ZM246.54,351.61c9.99,21.39,22.13,41.98,35.89,61.18,24.89,34.75,55.42,66.84,90.45,91.55,18.2,12.84,36.74,24.84,56.49,35.19,10.07,5.27,20.35,10.14,30.79,14.64,9.29,4,19.34,9.27,29.24,11.43-4.17-10.31-12.73-20.35-19.52-29.09-7.3-9.41-14.1-19.19-21.5-28.53-52.64-66.41-119.41-130.52-201.84-156.37ZM511.11,551.1c3.95-26.98,3.55-55.63,1.8-82.77-1.76-27.34-6.58-54.66-13.7-81.1-6.86-25.49-17.04-51.45-29.8-74.58-6.5-11.79-13.21-23.66-20.63-34.9-3.86-5.85-8.15-11.41-12.22-17.11-2.61-3.66-7.02-13.22-11.51-14.69-4.23,1.91-3.26,10.05-3.67,13.77-.75,6.75-1.03,13.1-1.02,19.92.02,14.15.98,27.89,2.52,41.95,3.05,27.86,9.71,56.75,19.08,83.16,9.08,25.59,19.49,50.23,30.97,74.79,11.35,24.3,23.1,49.3,38.17,71.57ZM369.71,74.68c-1.61-5.12-15.68-9.59-20.22-11.51-8.23-3.46-16.55-6.79-24.98-9.73-17.07-5.95-36.34-13.4-54.61-13.77-17.27,18.19-30.93,38.08-37.23,62.84,37.21,7.72,71.43,22.62,104.25,41.78,4.19-26.77,18.28-48.39,32.8-69.61ZM200.74,123.23c-2.98-5.1-15.46-3.81-20.51-4.14-6.96-.45-14.49.14-21.41,1.03-7.94,1.03-15.88,2.45-23.66,4.4-7.18,1.8-9.42,5.76-11.29,12.61-4.29,15.72-6.43,31.93-8,48.12-.74,7.66-.93,15.36-1.61,23.02-.61,6.84-1.96,15.27,1.52,21.61,25.83-4.85,51.57-5.3,77.43,1.34-2.28-36.69-1.37-72.74,7.53-107.99ZM352.96,177.66c-7.71.62-.57,55.11.48,62.38,3.19,21.95,8.63,43.79,16.08,64.69,7.3,20.47,15.76,41.11,25.82,60.38,4.77,9.13,9.52,18.28,14.28,27.41,2.58,4.95,5.32,9.76,8.24,14.5.91,1.48,6.34,12.83,8.34,12.74,1.32-2.85-3.43-11.25-4.5-14.41-1.95-5.7-3.71-11.36-5.18-17.21-2.84-11.28-5.78-22.52-8.06-33.92-4.55-22.7-7.36-46.18-7.22-69.37.07-11.69.95-23.54,2.29-35.15,1.08-9.39,5.85-20.7-.71-28.76-6.59-8.1-15.35-15.63-23.32-22.37-8.33-7.05-17.08-15.41-26.52-20.92ZM237.19,329.06c32.69,9.92,63.51,22.52,92.56,40.69,13.71,8.57,26.96,18.06,39.46,28.31,6.21,5.09,12.39,10.21,18.4,15.53,2.48,2.2,14.33,15.72,17.17,14.73-10.77-18.27-24.77-35.04-37.9-51.63-13.28-16.78-27.73-33.53-43.54-47.97-15.7-14.33-31.3-28.47-49.05-40.3-9.15-6.09-18.62-11.7-28.29-16.92-4.58-2.47-9.24-4.69-14-6.81-3.65-1.63-10.03-6.26-14.08-3.82,3.61,23.52,10.29,46.07,19.26,68.19ZM412.47,204.26c8.89-27.23,22.07-51.87,39.93-74.09-20.19-18.06-41.61-33.43-64.79-47.41-17.75,21.3-29.91,44.87-33.07,72.58,20.74,14.77,40.08,30.79,57.93,48.93ZM195.97,252.02c-26.12-8.12-52.33-9.32-78.61-2.74-2.44,5.87-.51,13.48.17,19.57.72,6.45,1.84,12.86,2.99,19.25,2.23,12.42,3.78,27.95,10.4,38.93,27.7-6.39,55.58-7.63,83.99-2.35-8.16-23.89-15.08-47.53-18.95-72.66ZM479.22,128.86c10.81,12.15,22.16,23.54,32.27,36.33,9.79,12.37,18.48,25.04,26.81,38.44,17.44,28.04,29.22,58.35,38.87,89.79,1.11-7.99-.25-17.46-.82-25.49-.65-9.09-1.33-18.16-2.22-27.23-1.71-17.32-4.02-34.96-8.4-51.84-4.32-16.64-9.13-33.36-14.99-49.54-3.09-8.53-6.55-16.91-10.58-25.04-1.95-3.94-3.94-7.86-5.85-11.83-1.08-2.25-2.54-8.07-4.92-9.41-10.95,2.59-41.06,24.06-50.18,35.82ZM63.72,378.41c6.97,15.69,20.3,28.38,32.36,40.22,12.25,12.04,25.56,23.61,39.15,34.11,13.63,10.52,27.11,21.11,41.4,30.75,7.25,4.89,14.81,9.46,22.46,13.71,7.11,3.95,15.55,8.98,23.77,9.98-12.29-9.03-23.41-21.86-33.47-33.25-10.59-11.98-20.52-24.34-29.61-37.5-18.12-26.22-31.18-55.16-43.17-84.56-9.34,0-20.44,6.07-28.66,10.08-8.06,3.93-19.1,8.69-24.23,16.46ZM465.86,116.12c15.63-16.15,33.31-29.16,53.2-39.37-12.07-20.48-27.46-37.85-45.62-53.19-28.13,8.7-52.84,23.18-73.9,44.65,23.87,13.84,45.12,30.56,66.31,47.91ZM51.45,361.58c18.48-12.79,38.48-22.1,59.42-29.49-8.29-25.73-11.28-52.17-15.22-78.65-27.72,9.68-51.85,24.35-72.16,45.02,5.37,22.94,15.2,43.54,27.96,63.12ZM212.09,102.96c5.88-24.36,18.39-45.22,32.5-65.99-5.91,1-12.84-.41-18.9-.14-6.04.26-12.12.67-18.1,1.58-11.04,1.68-22.12,5.52-31.57,11.52-19.73,12.54-31.3,33.18-40,54.18,25.41-5.58,50.53-4.26,76.07-1.15ZM405.51,429.19c-.03.43-.26.58.1.65-.02-.12-.04-.23-.1-.65Z"/>
      <path class="cls-2" d="M428.82,220.31c5.69-28.88,19.18-53.93,37.1-76.95,11.03,5.55,19.25,18.91,26.99,28.17,8.49,10.16,15.63,21.24,23.24,32.05,15.52,22,27.41,48.56,35.44,74.2,16.39,52.38,20.21,106.67,9.61,160.6-3.06,15.53-6.68,30.92-11.2,46.09-1.21,4.05-11.53,40.3-15.1,39.65-1.04-1.77-.2-5.81-.21-7.72-.02-3.57-.05-7.14-.04-10.71.03-7.28.14-14.51-.25-21.79-.75-14.08-2.01-28.16-3.89-42.14-3.78-28.12-10.49-54.96-19.66-81.76-8.97-26.22-20.83-51.63-35.09-75.4-6.89-11.49-14.53-22.76-22.47-33.55-7.75-10.52-17.11-19.98-24.47-30.74Z"/>
      <path class="cls-2" d="M453.8,572.52c-1.79,3.21-13.3.29-16.27-.02-6.91-.74-13.8-1.55-20.67-2.61-13.58-2.09-27.08-4.51-40.44-7.73-27.61-6.65-54.71-16.31-79.94-29.42-47.85-24.87-90.12-61.17-120.19-106.15-16.36-24.48-30.36-51.2-39.89-79.11,2.8-5.06,11.62-4.16,16.44-4.67,7.05-.74,14.01-2.11,21.1-2.38,13.72-.51,29.42.36,42.7,4.25,5.33,1.56,7.41,4.84,9.66,9.65,2.94,6.29,6.35,12.32,9.44,18.53,6.29,12.6,13.16,24.44,20.82,36.25,30.33,46.82,70.07,86.28,115.57,118.35,12.57,8.86,25.79,16.9,39.25,24.33,7.54,4.16,15.38,7.78,23.11,11.57,3.52,1.73,7.02,3.53,10.61,5.1,2.62,1.14,6.7,1.9,8.7,4.05Z"/>
      <path class="cls-2" d="M362.15,340.34c-2.15.02-5.03-4.57-6.41-6.01-2.56-2.67-5.21-5.26-7.91-7.79-5.19-4.86-10.05-10.03-15.19-14.94-11.54-11.01-24.01-21.2-36.68-30.84-25.31-19.27-52.65-32.76-82.05-44.54-5.65-39.3-2.53-77.91,7.89-116.34,39.11,6.34,77.57,21.96,110.51,43.89-.82,14.99-2.21,29.7-1.53,44.74.69,15.11,2.53,30.16,5.28,45.03,2.71,14.68,6.01,29.25,10.8,43.41,2.45,7.25,4.92,14.49,7.47,21.7,2.46,6.96,6.61,14.44,7.82,21.7h0Z"/>
      <path class="cls-2" d="M246.54,351.61c82.43,25.85,149.2,89.96,201.84,156.37,7.4,9.34,14.2,19.13,21.5,28.53,6.79,8.74,15.34,18.78,19.52,29.09-9.91-2.16-19.95-7.43-29.24-11.43-10.44-4.49-20.72-9.36-30.79-14.64-19.75-10.35-38.29-22.34-56.49-35.19-35.03-24.71-65.56-56.8-90.45-91.55-13.76-19.21-25.89-39.79-35.89-61.18Z"/>
      <path class="cls-2" d="M511.11,551.1c-15.07-22.27-26.82-47.27-38.17-71.57-11.48-24.56-21.89-49.2-30.97-74.79-9.37-26.41-16.03-55.31-19.08-83.16-1.54-14.06-2.49-27.8-2.52-41.95-.01-6.81.27-13.17,1.02-19.92.41-3.72-.56-11.85,3.67-13.77,4.49,1.47,8.89,11.02,11.51,14.69,4.07,5.71,8.36,11.26,12.22,17.11,7.41,11.23,14.13,23.11,20.63,34.9,12.75,23.13,22.93,49.1,29.8,74.58,7.12,26.43,11.94,53.76,13.7,81.1,1.75,27.15,2.15,55.8-1.8,82.77Z"/>
      <path class="cls-2" d="M369.71,74.68c-14.52,21.23-28.6,42.84-32.8,69.61-32.82-19.16-67.04-34.06-104.25-41.78,6.3-24.76,19.96-44.65,37.23-62.84,18.27.37,37.54,7.82,54.61,13.77,8.43,2.94,16.75,6.27,24.98,9.73,4.54,1.91,18.61,6.38,20.22,11.51Z"/>
      <path class="cls-2" d="M200.74,123.23c-8.9,35.25-9.81,71.29-7.53,107.99-25.86-6.65-51.6-6.19-77.43-1.34-3.48-6.34-2.13-14.77-1.52-21.61.69-7.66.87-15.36,1.61-23.02,1.57-16.19,3.71-32.4,8-48.12,1.87-6.84,4.11-10.81,11.29-12.61,7.77-1.95,15.71-3.37,23.66-4.4,6.92-.89,14.45-1.48,21.41-1.03,5.05.33,17.53-.96,20.51,4.14Z"/>
      <path class="cls-2" d="M352.96,177.66c9.44,5.52,18.19,13.87,26.52,20.92,7.96,6.74,16.72,14.27,23.32,22.37,6.56,8.06,1.79,19.37.71,28.76-1.34,11.61-2.22,23.47-2.29,35.15-.14,23.19,2.68,46.67,7.22,69.37,2.28,11.41,5.23,22.65,8.06,33.92,1.47,5.85,3.23,11.5,5.18,17.21,1.08,3.16,5.82,11.56,4.5,14.41-2,.08-7.43-11.27-8.34-12.74-2.92-4.75-5.66-9.56-8.24-14.5-4.76-9.14-9.51-18.28-14.28-27.41-10.06-19.27-18.52-39.91-25.82-60.38-7.45-20.89-12.9-42.73-16.08-64.69-1.06-7.27-8.19-61.76-.48-62.38Z"/>
      <path class="cls-2" d="M237.19,329.06c-8.97-22.12-15.65-44.67-19.26-68.19,4.05-2.43,10.43,2.2,14.08,3.82,4.75,2.12,9.42,4.33,14,6.81,9.67,5.23,19.14,10.83,28.29,16.92,17.75,11.83,33.35,25.97,49.05,40.3,15.82,14.44,30.27,31.19,43.54,47.97,13.12,16.59,27.13,33.35,37.9,51.63-2.84.99-14.68-12.53-17.17-14.73-6.01-5.32-12.19-10.44-18.4-15.53-12.5-10.25-25.75-19.74-39.46-28.31-29.06-18.17-59.88-30.77-92.56-40.69Z"/>
      <path class="cls-2" d="M412.47,204.26c-17.84-18.14-37.19-34.16-57.93-48.93,3.16-27.71,15.32-51.28,33.07-72.58,23.18,13.99,44.6,29.35,64.79,47.41-17.86,22.22-31.04,46.86-39.93,74.09Z"/>
      <path class="cls-2" d="M195.97,252.02c3.86,25.12,10.78,48.76,18.95,72.66-28.41-5.28-56.29-4.04-83.99,2.35-6.63-10.97-8.17-26.51-10.4-38.93-1.15-6.39-2.27-12.8-2.99-19.25-.68-6.09-2.6-13.7-.17-19.57,26.28-6.58,52.49-5.38,78.61,2.74Z"/>
      <path class="cls-2" d="M479.22,128.86c9.12-11.75,39.23-33.23,50.18-35.82,2.38,1.34,3.84,7.16,4.92,9.41,1.91,3.97,3.9,7.89,5.85,11.83,4.03,8.13,7.49,16.51,10.58,25.04,5.85,16.18,10.66,32.9,14.99,49.54,4.38,16.87,6.69,34.52,8.4,51.84.9,9.07,1.57,18.14,2.22,27.23.57,8.03,1.93,17.49.82,25.49-9.65-31.43-21.43-61.75-38.87-89.79-8.33-13.39-17.02-26.07-26.81-38.44-10.12-12.78-21.46-24.17-32.27-36.33Z"/>
      <path class="cls-2" d="M63.72,378.41c5.12-7.78,16.16-12.53,24.23-16.46,8.22-4.01,19.32-10.08,28.66-10.08,11.99,29.4,25.05,58.34,43.17,84.56,9.1,13.16,19.03,25.52,29.61,37.5,10.06,11.38,21.18,24.22,33.47,33.25-8.21-1-16.66-6.03-23.77-9.98-7.65-4.25-15.2-8.82-22.46-13.71-14.29-9.64-27.77-20.23-41.4-30.75-13.59-10.49-26.89-22.07-39.15-34.11-12.06-11.85-25.39-24.54-32.36-40.22Z"/>
      <path class="cls-2" d="M465.86,116.12c-21.19-17.36-42.45-34.07-66.31-47.91,21.06-21.47,45.77-35.96,73.9-44.65,18.16,15.34,33.55,32.71,45.62,53.19-19.89,10.21-37.57,23.22-53.2,39.37Z"/>
      <path class="cls-2" d="M51.45,361.58c-12.76-19.58-22.58-40.17-27.96-63.12,20.32-20.68,44.44-35.35,72.16-45.02,3.94,26.48,6.93,52.92,15.22,78.65-20.94,7.38-40.94,16.69-59.42,29.49Z"/>
      <path class="cls-2" d="M212.09,102.96c-25.53-3.11-50.66-4.43-76.07,1.15,8.7-20.99,20.27-41.64,40-54.18,9.45-6.01,20.53-9.85,31.57-11.52,5.98-.91,12.06-1.32,18.1-1.58,6.06-.27,12.99,1.14,18.9.14-14.11,20.77-26.62,41.63-32.5,65.99Z"/>
      <path class="cls-2" d="M362.15,340.34c.15.16.29.33.53.6-.65.02-.47-.37-.54-.59h0Z"/>
      <path class="cls-2" d="M405.51,429.19c.06.42.08.53.1.65-.36-.07-.13-.22-.1-.65Z"/>
    </g>
  </g>
</svg>